<?xml version="1.0" encoding="UTF-8" standalone="no"?>
<!-- Created with Inkscape (http://www.inkscape.org/) -->

<svg
   version="1.1"
   id="svg6615"
   inkscape:version="1.2.2 (b0a8486541, 2022-12-01)"
   sodipodi:docname="logo.svg"
   width="100"
   height="117.13892"
   xmlns:inkscape="http://www.inkscape.org/namespaces/inkscape"
   xmlns:sodipodi="http://sodipodi.sourceforge.net/DTD/sodipodi-0.dtd"
   xmlns="http://www.w3.org/2000/svg"
   xmlns:svg="http://www.w3.org/2000/svg">
  <defs
     id="defs62" />
  <sodipodi:namedview
     id="namedview6617"
     pagecolor="#ffffff"
     bordercolor="#000000"
     borderopacity="0.25"
     inkscape:showpageshadow="2"
     inkscape:pageopacity="0.0"
     inkscape:pagecheckerboard="0"
     inkscape:deskcolor="#d1d1d1"
     inkscape:document-units="mm"
     showgrid="false"
     inkscape:zoom="22.627417"
     inkscape:cx="60.435533"
     inkscape:cy="95.614095"
     inkscape:window-width="3072"
     inkscape:window-height="1659"
     inkscape:window-x="0"
     inkscape:window-y="0"
     inkscape:window-maximized="1"
     inkscape:current-layer="g6302"
     showguides="false" />
  <g
     inkscape:label="Layer 1"
     inkscape:groupmode="layer"
     id="layer1"
     transform="translate(-6.6272002,-44.895533)">
    <g
       id="g6302"
       transform="matrix(0.86318802,0,0,0.86318802,-33.292919,20.010181)"
       style="display:inline;">
      <g
         id="g889">
        <path
           style="fill:#26bc51;fill-opacity:1;stroke:#000000;stroke-width:0.264583;stroke-opacity:1"
           d="m 119.73378,28.979478 c -0.95049,-0.113501 -4.17696,0.661908 -5.45859,1.312066 -1.48591,0.753782 -2.87804,2.08775 -3.41633,3.272668 -0.63642,1.400879 -0.66618,5.094735 -0.0563,6.983037 0.24039,0.74431 0.49085,1.353404 0.55655,1.353404 0.0658,0 0.94644,-0.43453 1.95751,-0.965832 2.3471,-1.233368 3.18693,-2.265725 3.91345,-4.810043 1.07803,-3.775284 1.66911,-5.254932 2.4598,-6.157246 l 0.78807,-0.89917 z"
           id="path867" />
        <path
           style="fill:#26bc51;fill-opacity:1;stroke:#000000;stroke-width:0.264583;stroke-opacity:1"
           d="m 74.004783,95.263288 c -0.122616,0.02206 -0.08535,0.162353 -0.0031,0.441833 0.506084,1.71959 2.570445,3.951245 4.475694,4.838469 1.529601,0.71229 3.305574,0.79877 5.297352,0.25838 1.768856,-0.4799 3.307292,-1.245111 3.307292,-1.645381 -0.872366,-2.548424 -5.462561,-2.938878 -7.9375,-3.108854 -1.676831,-0.06776 -3.551835,-0.299863 -4.17649,-0.516763 -0.558242,-0.193847 -0.840632,-0.289745 -0.96325,-0.267684 z"
           id="path734" />
        <path
           style="fill:#26bc51;fill-opacity:1;stroke:#000000;stroke-width:0.264583;stroke-opacity:1"
           d="m 63.725826,86.692751 c -0.231997,0.120272 -0.351401,0.881809 -0.414962,2.398302 -0.204118,4.869741 1.797056,7.672107 6.570142,9.199957 1.815033,0.580988 2.648934,0.615783 2.648934,0.111104 0,-0.857581 -0.625314,-3.248806 -1.08934,-4.166156 -0.272172,-0.538059 -1.162013,-1.490564 -1.977657,-2.116666 -1.818775,-1.39613 -4.616675,-4.080248 -5.18573,-4.974889 -0.232259,-0.365152 -0.412189,-0.523814 -0.551387,-0.451652 z"
           id="path925" />
        <path
           style="fill:#26bc51;fill-opacity:1;stroke:#000000;stroke-width:0.264583;stroke-opacity:1"
           d="m 144.67075,91.975633 c -0.0676,-0.02953 -0.19247,-7.88e-4 -0.37258,0.07855 -1.91916,0.845349 -4.43895,1.450332 -7.60677,1.826763 -3.93186,0.46723 -5.99696,0.942679 -7.55871,1.739429 -0.93168,0.4753 -4.47983,3.595344 -4.47983,3.939294 0,0.220041 2.13627,1.047121 3.83645,1.485691 0.7276,0.18768 2.23485,0.35141 3.34967,0.3638 4.68725,0.052 8.40667,-2.271322 11.8215,-7.385072 0.89922,-1.346594 1.21324,-1.959853 1.01027,-2.048452 z"
           id="path40" />
        <path
           style="fill:#26bc51;fill-opacity:1;stroke:#000000;stroke-width:0.264583;stroke-opacity:1"
           d="m 157.54749,83.437284 c -0.17065,0.0656 -0.37074,0.277509 -0.44494,0.470771 -0.17422,0.454009 -1.93358,1.653259 -4.27157,2.911451 -3.77049,2.02909 -4.24941,2.418345 -4.97541,4.044715 -0.37201,0.83335 -0.76182,1.860634 -0.86609,2.283063 l -0.18914,0.768429 2.08928,-0.147278 c 3.82413,-0.269409 6.784,-1.967507 8.07703,-4.633309 0.69715,-1.43733 1.15387,-5.91812 0.58084,-5.697842 z"
           id="path923" />
        <path
           style="fill:#26bc51;fill-opacity:1;stroke:#000000;stroke-width:0.264583;stroke-opacity:1"
           d="m 94.563736,83.175653 c -0.586571,0 -0.597964,0.03527 -0.24288,0.727604 0.285499,0.556659 1.227834,4.385127 1.227834,4.988327 0,0.05677 0.434906,0.585266 0.966864,1.174089 0.531958,0.588809 1.149686,1.035087 1.372526,0.992187 0.945951,-0.182171 1.077685,-4.291661 0.181385,-5.659604 -0.56529,-0.86274 -2.710511,-2.222603 -3.505729,-2.222603 z"
           id="path921" />
        <path
           style="fill:#26bc51;fill-opacity:1;stroke:#000000;stroke-width:0.264583;stroke-opacity:1"
           d="m 119.91206,82.714698 c -0.63625,0.119113 -1.79546,0.653058 -2.6417,1.266074 -1.33883,0.969841 -2.30793,2.440001 -2.53008,3.838009 -0.19747,1.242758 0.22457,4.234584 0.67386,4.775935 0.40643,0.489731 0.35018,0.511141 1.58234,-0.60203 1.32109,-1.193541 1.7311,-1.957366 1.96628,-3.661275 0.18549,-1.343901 0.43522,-2.287662 1.13843,-4.302064 0.21704,-0.62171 0.32585,-1.199105 0.24185,-1.283126 -0.0649,-0.06492 -0.2189,-0.07123 -0.43098,-0.03152 z"
           id="path919" />
        <path
           style="fill:#26bc51;fill-opacity:1;stroke:#000000;stroke-width:0.264583;stroke-opacity:1"
           d="m 154.10067,81.280162 c -0.63847,0.04944 -1.46171,0.212545 -2.26756,0.473871 -1.51545,0.491437 -3.61459,2.092656 -4.39146,3.349668 -0.70134,1.1348 -0.6999,1.189429 0.0315,1.301212 1.02115,0.156062 2.88258,-0.29116 4.04264,-0.970999 1.28737,-0.754454 3.90028,-3.50696 3.74551,-3.945496 -0.0683,-0.193641 -0.52218,-0.257691 -1.16065,-0.208256 z"
           id="path917" />
        <path
           style="fill:#26bc51;fill-opacity:1;stroke:#000000;stroke-width:0.264583;stroke-opacity:1"
           d="m 53.778628,80.904475 c -0.593635,-0.0265 -1.007615,-0.01478 -1.07642,0.05271 -0.256077,0.25118 2.6137,3.995169 3.698483,4.825029 1.09841,0.840296 1.253001,0.881256 2.956925,0.784966 1.397736,-0.07898 1.924386,-0.228367 2.365748,-0.669726 0.516838,-0.51684 0.536221,-0.643605 0.216525,-1.415418 -0.47548,-1.147913 -1.477976,-2.297986 -2.433444,-2.792076 -0.548831,-0.283814 -3.946912,-0.705993 -5.727817,-0.785482 z"
           id="path915" />
        <path
           style="fill:#26bc51;fill-opacity:1;stroke:#000000;stroke-width:0.264583;stroke-opacity:1"
           d="m 68.362234,80.240947 c -0.203811,-0.05276 -0.330211,-0.05567 -0.330211,0.0047 0,0.456065 0.87907,2.295914 1.773018,3.710368 2.331852,3.689599 4.572421,4.897289 7.615555,4.104659 0.816859,-0.21277 1.58569,-0.387057 1.708941,-0.387057 0.123251,0 0.6067,0.595464 1.073835,1.323433 1.125276,1.753592 3.198204,3.586665 4.430221,3.917074 1.942107,0.520851 3.948152,-0.333809 3.85351,-1.641761 -0.0702,-0.970208 -1.371623,-2.688251 -2.414838,-3.187401 -0.486588,-0.23282 -1.960036,-0.490892 -3.307292,-0.579294 -2.809018,-0.184399 -3.450164,-0.492213 -3.898987,-1.873269 -0.995217,-3.062337 -3.299698,-4.540527 -7.129796,-4.572849 -0.84786,-0.0072 -1.924524,-0.22506 -2.579688,-0.522449 -0.309231,-0.140372 -0.590454,-0.243348 -0.794268,-0.296106 z"
           id="path913" />
        <path
           style="fill:#26bc51;fill-opacity:1;stroke:#000000;stroke-width:0.264583;stroke-opacity:1"
           d="m 143.37988,79.693178 c -0.0505,-0.151638 -0.57183,0.123613 -1.15859,0.611333 -1.09093,0.90678 -3.66231,2.195182 -4.89427,2.452563 -1.17917,0.246348 -3.33513,2.060678 -4.25763,3.582728 -0.82917,1.368018 -0.87591,1.579957 -0.87591,3.964099 v 2.519225 l 0.79375,0.172082 c 3.97152,0.86038 7.53509,-1.642573 9.08317,-6.379972 0.58864,-1.801373 1.46756,-6.44783 1.30948,-6.922058 z"
           id="path911" />
        <path
           style="fill:#26bc51;fill-opacity:1;stroke:#000000;stroke-width:0.264583;stroke-opacity:1"
           d="m 47.385221,71.533986 c -1.182894,0 -1.19203,0.01424 -0.669211,1.025261 0.781397,1.51104 3.064092,3.186517 5.308722,3.896402 1.506405,0.476417 2.513541,0.460883 2.513541,-0.03824 0,-0.59313 -1.569929,-2.587123 -2.645833,-3.360518 -1.1875,-0.853615 -3.168779,-1.522905 -4.507219,-1.522905 z"
           id="path907" />
        <path
           style="fill:#26bc51;fill-opacity:1;stroke:#000000;stroke-width:0.264583;stroke-opacity:1"
           d="m 115.30769,71.00482 c -0.0861,0 -0.58355,0.289787 -1.10536,0.643887 -0.5218,0.35411 -1.55276,0.844542 -2.29133,1.089856 -2.36891,0.786828 -3.92689,2.966444 -3.92689,5.493723 0,0.624057 0.15833,1.040546 0.46302,1.218012 1.15915,0.675148 3.38186,-0.09118 4.73511,-1.632458 0.45531,-0.518559 1.07824,-1.697918 1.38441,-2.621028 0.58,-1.748714 1.01181,-4.191992 0.74104,-4.191992 z"
           id="path905" />
        <path
           style="fill:#26bc51;fill-opacity:1;stroke:#000000;stroke-width:0.264583;stroke-opacity:1"
           d="m 55.383183,68.004487 c -0.09011,0.01003 -0.156527,0.04632 -0.196889,0.11162 -0.377119,0.610192 0.56652,5.633011 1.338937,7.126697 0.646385,1.249971 2.83293,3.457268 4.204911,4.244184 0.741704,0.425421 1.632054,0.774364 1.978174,0.775663 0.619064,0.0024 0.627118,-0.0308 0.510047,-2.053103 -0.1701,-2.938404 -1.012036,-4.628626 -3.58686,-7.199561 -1.844207,-1.841423 -3.617569,-3.075707 -4.24832,-3.0055 z"
           id="path903" />
        <path
           style="fill:#26bc51;fill-opacity:1;stroke:#000000;stroke-width:0.264583;stroke-opacity:1"
           d="m 134.42642,74.299857 c -0.86325,-0.135152 -4.4589,0.733554 -5.96656,1.441254 -1.52569,0.716172 -3.73945,2.910906 -4.562,4.52324 -0.78914,1.546847 -1.16999,4.315097 -0.95756,6.955647 0.0995,1.236919 0.2945,2.462731 0.43356,2.724383 0.30361,0.571299 0.83908,0.449765 2.7342,-0.620636 2.58087,-1.457719 3.64586,-3.108119 5.1294,-7.949901 1.0311,-3.365159 1.40112,-4.154083 2.66548,-5.679757 0.99998,-1.206654 1.04013,-1.313339 0.52348,-1.39423 z"
           id="path764" />
        <path
           style="fill:#26bc51;fill-opacity:1;stroke:#000000;stroke-width:0.264583;stroke-opacity:1"
           d="m 161.64594,72.863767 c -0.19336,0.02998 -0.46057,0.100613 -0.75395,0.204124 -0.59816,0.211045 -1.90582,0.360219 -2.97657,0.340032 -2.69317,-0.05077 -4.3705,0.977243 -5.32525,3.262849 -0.36775,0.880261 -0.36311,0.99459 0.0574,1.375109 0.25224,0.228269 0.75385,0.533005 1.11466,0.676962 2.25128,0.898234 4.69726,-0.366969 6.8001,-3.517098 0.76819,-1.150781 1.39682,-2.187146 1.39682,-2.303219 0,-0.05804 -0.1198,-0.06873 -0.31317,-0.03876 z"
           id="path762" />
        <path
           style="fill:#26bc51;fill-opacity:1;stroke:#000000;stroke-width:0.264583;stroke-opacity:1"
           d="m 77.532218,72.463275 0.415478,0.565341 c 1.093605,1.488543 1.498849,2.301171 2.280997,4.570264 0.925362,2.684563 1.887339,4.068657 3.371887,4.852935 0.53231,0.281215 1.111435,0.516564 1.286743,0.522965 0.731546,0.02684 0.750996,-4.010248 0.02946,-6.113839 -0.753891,-2.197909 -2.564593,-3.491854 -5.712828,-4.083473 z"
           id="path760" />
        <path
           style="fill:#26bc51;fill-opacity:1;stroke:#000000;stroke-width:0.264583;stroke-opacity:1"
           d="m 62.608065,65.990287 1.121378,1.12758 c 0.675701,0.679751 1.71391,2.296281 2.612761,4.066934 2.014728,3.968827 2.425194,4.459838 4.656044,5.575887 l 1.908929,0.954982 0.233577,-0.60565 c 0.309761,-0.80445 0.0391,-3.949742 -0.496093,-5.765022 -0.330452,-1.120844 -0.753642,-1.771388 -1.840715,-2.831351 -1.597554,-1.557716 -2.914832,-2.055604 -6.211506,-2.347661 z"
           id="path901" />
        <path
           style="fill:#26bc51;fill-opacity:1;stroke:#000000;stroke-width:0.264583;stroke-opacity:1"
           d="m 141.76447,67.011265 c -1.00733,-0.07141 -2.77491,0.191442 -3.61786,0.620117 -1.81838,0.924716 -2.48403,2.491396 -2.50063,5.886979 -0.007,1.455209 0.0727,2.854193 0.17725,3.108854 0.25265,0.615265 0.84573,0.583912 2.0805,-0.110069 1.16469,-0.654592 1.6857,-1.61118 2.71508,-4.98316 0.3776,-1.236927 0.98256,-2.680967 1.3441,-3.209107 0.36155,-0.52814 0.58329,-1.034159 0.49299,-1.124479 -0.10435,-0.104347 -0.35565,-0.165331 -0.69143,-0.189135 z"
           id="path899" />
        <path
           style="fill:#26bc51;fill-opacity:1;stroke:#000000;stroke-width:0.264583;stroke-opacity:1"
           d="m 154.53527,65.836142 c -0.39186,-0.242181 -4.00001,2.580317 -5.41311,4.234368 -1.46628,1.716301 -2.39936,3.733847 -2.75745,5.961393 -0.31401,1.953294 -0.369,4.585737 -0.10129,4.85345 0.43872,0.438724 3.02927,-0.946359 4.7687,-2.549715 2.15902,-1.990114 3.78324,-6.545257 3.78324,-10.611239 0,-0.943433 -0.1262,-1.793145 -0.28009,-1.888257 z"
           id="path897" />
        <path
           style="fill:#26bc51;fill-opacity:1;stroke:#000000;stroke-width:0.264583;stroke-opacity:1"
           d="m 96.162089,70.870462 c -0.139925,0.08675 -0.05304,0.699436 0.195852,2.233453 0.534734,3.295732 2.170155,5.74752 4.217829,6.323648 2.20001,0.618979 2.79285,0.291123 2.73885,-1.515155 -0.0856,-2.860098 -0.84873,-3.828119 -4.212142,-5.341276 -1.0086,-0.453755 -2.101887,-1.07205 -2.429309,-1.374077 -0.261554,-0.241268 -0.427125,-0.378648 -0.51108,-0.326593 z"
           id="path772" />
        <path
           style="fill:#26bc51;fill-opacity:1;stroke:#000000;stroke-width:0.264583;stroke-opacity:1"
           d="m 88.537231,63.993361 -0.178802,2.248959 c -0.09837,1.236927 -0.485511,3.499114 -0.859896,5.027083 -0.374383,1.527969 -0.679294,3.075781 -0.677995,3.439583 0.0025,0.744723 1.138515,3.329977 1.76992,4.027662 0.234963,0.259646 0.560742,0.37405 0.75344,0.2651 0.600462,-0.339501 1.942166,-2.195619 2.694927,-3.728456 0.625208,-1.273106 0.73174,-1.818248 0.73174,-3.739306 0,-2.779932 -0.420479,-3.72777 -2.63705,-5.944341 z"
           id="path895" />
        <path
           style="fill:#26bc51;fill-opacity:1;stroke:#000000;stroke-width:0.264583;stroke-opacity:1"
           d="m 151.66826,54.865236 c -0.16107,0 -0.29301,0.163537 -0.29301,0.363287 0,0.500504 -2.10209,2.393759 -3.38325,3.047359 -1.13038,0.576673 -2.49866,2.118749 -2.98535,3.364135 -0.40648,1.041183 -0.41016,3.721441 -0.006,4.933032 h -5.2e-4 c 0.27246,0.817216 0.45579,0.991936 1.03818,0.990637 2.16596,-0.0045 3.8994,-1.137862 5.00796,-3.274219 0.65178,-1.256054 0.71034,-1.647968 0.80874,-5.389335 0.0746,-2.837127 0.0194,-4.034896 -0.18655,-4.034896 z"
           id="path776" />
        <path
           style="fill:#26bc51;fill-opacity:1;stroke:#000000;stroke-width:0.264583;stroke-opacity:1"
           d="m 144.16639,54.299896 -0.70538,0.675412 c -0.38776,0.371499 -1.46555,1.185315 -2.3952,1.808158 -2.12676,1.424868 -2.9192,2.777929 -2.9192,4.983675 0,1.035392 0.13355,1.660599 0.41547,1.942516 0.53607,0.536067 1.0589,0.517488 2.36265,-0.08423 1.30014,-0.600053 2.08719,-1.429832 2.66547,-2.810681 0.54893,-1.310752 0.96263,-4.453774 0.74156,-5.632215 z"
           id="path893" />
        <path
           style="fill:#26bc51;fill-opacity:1;stroke:#000000;stroke-width:0.264583;stroke-opacity:1"
           d="m 127.42891,53.838942 c -0.88832,0.254277 -3.43827,2.385808 -3.98373,3.440617 -0.51714,0.999988 -0.49604,3.252571 0.0357,3.784264 0.54337,0.543372 0.80002,0.52546 1.86346,-0.131773 1.35335,-0.836417 1.95247,-1.851152 1.96577,-3.329514 0.006,-0.705141 0.11528,-1.817872 0.24184,-2.472716 0.12655,-0.654844 0.19181,-1.229297 0.14521,-1.276408 -0.0484,-0.04891 -0.14129,-0.0508 -0.2682,-0.01447 z"
           id="path891" />
        <path
           style="fill:#26bc51;fill-opacity:1;stroke:#000000;stroke-width:0.264583;stroke-opacity:1"
           d="m 113.87677,59.495445 -0.63149,0.577741 c -0.34717,0.317849 -1.66502,1.053293 -2.92902,1.634011 -2.81671,1.294072 -3.62213,2.293589 -3.84731,4.776968 -0.13621,1.502071 -0.10609,1.61639 0.48679,1.859319 0.65426,0.268089 2.43408,0.11843 3.16777,-0.266133 1.66338,-0.871842 3.15074,-3.862922 3.57549,-7.190259 z"
           id="path788" />
        <path
           style="fill:#26bc51;fill-opacity:1;stroke:#000000;stroke-width:0.264583;stroke-opacity:1"
           d="m 120.28723,59.230861 -1.41128,1.313614 c -2.69155,2.505559 -3.60794,5.092978 -2.85048,8.049639 0.47711,1.862298 1.28189,3.358171 2.69493,5.008996 l 0.96428,1.127064 0.95395,-1.524971 c 1.24988,-1.998197 1.38995,-3.756689 0.56534,-7.095175 -0.32349,-1.309688 -0.66201,-3.393281 -0.75241,-4.630208 z"
           id="path786" />
        <path
           style="fill:#26bc51;fill-opacity:1;stroke:#000000;stroke-width:0.264583;stroke-opacity:1"
           d="m 137.72751,58.833986 -1.31207,0.0021 c -1.84505,0.0029 -5.1292,0.839684 -6.54016,1.666565 -1.66918,0.978197 -3.50796,3.12071 -4.1491,4.834332 -0.57762,1.543807 -1.03844,6.833155 -0.70952,8.143687 0.22104,0.880718 1.0588,0.925068 2.62309,0.139528 2.77322,-1.392632 3.97136,-2.939193 5.61258,-7.245554 1.44615,-3.794519 2.15841,-5.142526 3.38894,-6.416145 z"
           id="path784" />
        <path
           style="fill:#26bc51;fill-opacity:1;stroke:#000000;stroke-width:0.264583;stroke-opacity:1"
           d="m 92.288938,58.184413 0.148312,1.581301 c 0.315876,3.372572 2.120715,6.424581 4.112411,6.954097 0.540777,0.143771 1.429891,0.273841 1.975591,0.288872 l 0.992188,0.02739 v -1.570448 c 0,-2.864927 -0.691513,-3.826745 -3.836459,-5.336106 -1.164169,-0.558723 -2.403713,-1.224886 -2.754355,-1.480532 z"
           id="path782" />
        <path
           style="fill:#26bc51;fill-opacity:1;stroke:#000000;stroke-width:0.264583;stroke-opacity:1"
           d="m 85.436645,53.806903 c -0.04611,0 -0.0096,1.043305 0.08061,2.318721 0.19078,2.69788 0.643572,3.745794 2.025716,4.684985 1.249018,0.84873 1.440812,0.839335 1.995228,-0.09922 0.5514,-0.933447 0.586552,-2.445485 0.07906,-3.412193 -0.633843,-1.207405 -3.369278,-3.492294 -4.180623,-3.492294 z"
           id="path889" />
        <path
           style="fill:#26bc51;fill-opacity:1;stroke:#000000;stroke-width:0.264583;stroke-opacity:1"
           d="m 69.056765,56.867182 c -0.177694,-0.104235 -0.16569,0.09807 -0.06821,0.811837 0.566729,4.149892 1.644576,6.338271 3.673679,7.460525 0.710477,0.392991 2.85814,0.387655 3.254062,-0.0083 0.384255,-0.384252 0.412338,-1.87007 0.0584,-3.104203 -0.396935,-1.384019 -1.508172,-2.365393 -3.972885,-3.50883 -1.236244,-0.573521 -2.451182,-1.226846 -2.700094,-1.452107 -0.105294,-0.09529 -0.185714,-0.164209 -0.244946,-0.198954 z"
           id="path794" />
        <path
           style="fill:#26bc51;fill-opacity:1;stroke:#000000;stroke-width:0.264583;stroke-opacity:1"
           d="m 76.459415,56.320445 c -0.323096,0.01811 -0.100256,0.473884 0.349848,1.384929 0.76023,1.538754 0.870506,2.167573 1.535308,8.769491 0.388136,3.854436 0.968865,4.955203 3.963583,7.506517 0.640543,0.545703 1.191921,0.992188 1.22473,0.992188 0.0328,0 0.444391,-1.041797 0.914675,-2.315105 0.717357,-1.942282 0.875453,-2.791756 0.983401,-5.27513 0.124211,-2.857465 0.101795,-3.017943 -0.654222,-4.630208 -1.098079,-2.341727 -2.712477,-3.896736 -5.390886,-5.192448 -1.734447,-0.839057 -2.603341,-1.258342 -2.926437,-1.240234 z"
           id="path792" />
        <path
           style="fill:#26bc51;fill-opacity:1;stroke:#000000;stroke-width:0.264583;stroke-opacity:1"
           d="m 60.094523,53.806903 c -0.162157,0 -0.264583,1.269495 -0.264583,3.279386 0,4.781203 0.792522,7.008376 3.042708,8.550384 0.436563,0.299167 1.031873,0.603572 1.322917,0.676444 0.291039,0.07286 0.911937,0.146418 1.37976,0.163298 1.157396,0.04176 1.430877,-0.56927 1.450557,-3.237013 0.01256,-1.700898 -0.103497,-2.409968 -0.531749,-3.249414 -0.625041,-1.225185 -1.982224,-2.503953 -3.455604,-3.255616 -1.003298,-0.511839 -2.679422,-2.183471 -2.679422,-2.672188 0,-0.140454 -0.119063,-0.255281 -0.264584,-0.255281 z"
           id="path887" />
        <path
           style="fill:#26bc51;fill-opacity:1;stroke:#000000;stroke-width:0.264583;stroke-opacity:1"
           d="m 137.83706,48.694553 c -2.29991,-0.08955 -4.78556,0.918458 -6.22442,2.596742 -1.07733,1.256596 -2.35034,3.420353 -2.59829,4.416266 -0.16639,0.668274 -0.11678,0.715897 0.83974,0.802537 1.70751,0.154665 3.89088,-0.0973 4.58835,-0.529167 0.3638,-0.225261 1.52961,-1.115959 2.59054,-1.979207 2.25023,-1.830949 4.71532,-3.369821 5.3976,-3.369821 1.56975,0 -1.14349,-1.370949 -3.62252,-1.830379 -0.31738,-0.05882 -0.64244,-0.09418 -0.971,-0.106971 z"
           id="path885" />
        <path
           style="fill:#26bc51;fill-opacity:1;stroke:#000000;stroke-width:0.264583;stroke-opacity:1"
           d="m 151.86928,45.920563 c -0.3769,-0.02818 -0.95103,0.474663 -1.74356,1.506884 -1.34914,1.757159 -2.02557,4.856877 -1.49345,6.842477 0.18125,0.676317 0.21859,0.690787 0.87591,0.338997 1.30828,-0.700167 2.93079,-4.593156 2.92179,-7.009392 -0.004,-1.091787 -0.18379,-1.650788 -0.56069,-1.678966 z"
           id="path883" />
        <path
           style="fill:#26bc51;fill-opacity:1;stroke:#000000;stroke-width:0.264583;stroke-opacity:1"
           d="m 123.89373,45.417236 c -0.14333,-0.0885 -0.57836,0.0499 -1.42834,0.339513 -1.37337,0.467955 -3.45144,2.168443 -4.03903,3.304707 -0.46472,0.898734 -0.5264,4.534638 -0.0977,5.764506 0.36538,1.048154 0.76907,1.04799 1.96267,0 1.2783,-1.122365 1.63646,-1.897288 2.22209,-4.808493 0.27402,-1.362157 0.7506,-2.9718 1.05937,-3.577042 0.31595,-0.619326 0.46424,-0.934696 0.32091,-1.023191 z"
           id="path881" />
        <path
           style="fill:#26bc51;fill-opacity:1;stroke:#000000;stroke-width:0.264583;stroke-opacity:1"
           d="m 92.101354,51.172955 0.432014,0.853697 c 0.803786,1.589637 2.612427,3.721589 3.794601,4.472593 1.343713,0.853628 2.906157,0.983107 4.388361,0.363802 1.20088,-0.501769 1.23148,-1.466961 0.0951,-3.012218 -1.104139,-1.501388 -1.943919,-1.880846 -4.816246,-2.177129 -1.337151,-0.137927 -2.759832,-0.306909 -3.162083,-0.375687 z"
           id="path806" />
        <path
           style="fill:#26bc51;fill-opacity:1;stroke:#000000;stroke-width:0.264583;stroke-opacity:1"
           d="m 75.904409,50.11514 c -0.705532,-0.03275 -1.257803,0.03583 -1.257803,0.223758 0,0.405387 2.287085,2.801702 3.429765,3.593579 0.599676,0.415576 1.651228,0.906492 2.336292,1.09089 1.683501,0.453152 2.70061,0.457446 2.70061,0.01137 0,-1.091808 -3.042039,-3.834849 -5.031219,-4.536675 -0.613336,-0.216395 -1.47211,-0.350176 -2.177645,-0.382922 z"
           id="path804" />
        <path
           style="fill:#26bc51;fill-opacity:1;stroke:#000000;stroke-width:0.264583;stroke-opacity:1"
           d="m 67.246023,45.075653 c -0.415512,0 -0.542018,1.420458 -0.307475,3.458705 0.250698,2.178677 0.440391,2.653048 1.813843,4.544941 0.501806,0.691224 1.075047,1.256771 1.274342,1.256771 0.961226,0 0.795274,-4.061463 -0.252698,-6.182569 -0.666121,-1.348235 -2.086695,-3.077848 -2.528012,-3.077848 z"
           id="path879" />
        <path
           style="fill:#26bc51;fill-opacity:1;stroke:#000000;stroke-width:0.264583;stroke-opacity:1"
           d="m 135.0977,42.68872 c -1.19092,-0.0061 -3.37888,0.682323 -4.71858,1.61127 -1.00013,0.693494 -2.81585,2.877365 -2.81585,3.386873 0,0.568399 2.54957,0.251645 4.06435,-0.504878 1.35999,-0.679212 4.51818,-3.821623 4.26021,-4.239019 -0.10709,-0.17327 -0.39316,-0.252206 -0.79013,-0.254246 z"
           id="path877" />
        <path
           style="fill:#26bc51;fill-opacity:1;stroke:#000000;stroke-width:0.264583;stroke-opacity:1"
           d="m 146.69337,42.181257 c -0.83464,-0.03743 -2.63673,0.300715 -3.69848,0.768945 -1.94993,0.859915 -4.69702,3.775999 -4.11035,4.36304 0.30746,0.307642 3.01829,-0.136959 4.05247,-0.664559 1.71291,-0.873863 4.20543,-3.41997 4.20543,-4.295859 0,-0.105101 -0.17086,-0.159092 -0.44907,-0.171567 z"
           id="path875" />
        <path
           style="fill:#26bc51;fill-opacity:1;stroke:#000000;stroke-width:0.264583;stroke-opacity:1"
           d="m 118.39949,44.460703 -1.70171,0.176734 c -5.10134,0.529744 -8.55574,3.04813 -9.93065,7.239352 -0.61514,1.875158 -0.70586,7.689987 -0.13075,8.38295 0.30668,0.369541 0.44064,0.370646 1.30794,0.01137 1.78037,-0.737537 3.7633,-2.243257 4.51445,-3.427698 0.40951,-0.645727 1.06316,-2.09912 1.45262,-3.229777 2.10864,-6.121567 1.98988,-5.864347 3.84473,-8.305435 z"
           id="path816" />
        <path
           style="fill:#26bc51;fill-opacity:1;stroke:#000000;stroke-width:0.264583;stroke-opacity:1"
           d="m 84.776738,42.730577 c -0.07733,0.043 -0.04485,0.163034 0.05013,0.387056 0.319815,0.754402 1.122775,3.703135 1.578197,5.794479 0.356656,1.637797 0.544798,1.982184 1.62419,2.976562 0.671346,0.618464 1.377786,1.124479 1.569931,1.124479 0.414936,0 0.922425,-2.13737 0.922425,-3.885033 0,-3.183652 -1.89172,-5.511337 -5.136639,-6.320547 -0.343691,-0.08571 -0.530902,-0.119999 -0.608229,-0.077 z"
           id="path814" />
        <path
           style="fill:#26bc51;fill-opacity:1;stroke:#000000;stroke-width:0.264583;stroke-opacity:1"
           d="m 71.868482,37.460614 c -2.183318,0.06441 -2.90022,0.197075 -4.101042,0.758611 l -1.455208,0.680061 1.058333,0.344683 c 1.058823,0.344676 2.625656,1.404665 6.066811,4.10414 1.00856,0.791181 2.080125,1.487572 2.38125,1.547194 0.30113,0.05962 1.414677,0.124356 2.47427,0.144176 2.366499,0.04426 2.489819,-0.151156 1.423167,-2.25154 -1.232236,-2.426444 -2.301243,-3.715634 -3.809069,-4.594037 -1.337347,-0.77909 -1.4981,-0.808228 -4.038512,-0.733288 z"
           id="path873" />
        <path
           style="fill:#26bc51;fill-opacity:1;stroke:#000000;stroke-width:0.264583;stroke-opacity:1"
           d="m 128.1374,30.843449 c -1.06722,0.08869 -3.07497,0.52202 -3.75533,0.873847 -1.00216,0.518239 -3.96255,3.479869 -3.96255,3.964099 0,1.022664 4.31111,-0.131774 6.2668,-1.677935 1.2784,-1.0107 2.47262,-2.766335 2.1208,-3.118154 -0.0628,-0.06283 -0.31399,-0.07142 -0.66972,-0.04186 z"
           id="path871" />
        <path
           style="fill:#26bc51;fill-opacity:1;stroke:#000000;stroke-width:0.264583;stroke-opacity:1"
           d="m 130.09542,35.021487 c -0.1025,0 -0.56513,0.288615 -1.02836,0.641305 -0.46324,0.352692 -1.53217,0.898974 -2.37505,1.213879 -1.63134,0.609478 -2.5804,1.387176 -3.23288,2.648934 -0.46877,0.906592 -0.79693,2.955269 -0.56844,3.550687 0.19078,0.497179 2.29544,0.567068 3.58118,0.118856 1.51163,-0.52696 3.29938,-3.829621 3.63957,-6.724136 0.0937,-0.797285 0.0865,-1.449525 -0.016,-1.449525 z"
           id="path826" />
        <path
           style="fill:#26bc51;fill-opacity:1;stroke:#000000;stroke-width:0.264583;stroke-opacity:1"
           d="m 139.18427,32.696048 c -0.31622,0.07155 -0.82822,0.424108 -1.63091,0.998905 -2.40093,1.719268 -3.12375,3.892669 -1.91048,5.744353 0.49938,0.762161 0.87159,0.764564 1.98696,0.01292 1.32819,-0.89507 1.75563,-1.884505 1.942,-4.496882 0.12249,-1.716863 0.13945,-2.378551 -0.38757,-2.259293 z"
           id="path824" />
        <path
           style="fill:#26bc51;fill-opacity:1;stroke:#000000;stroke-width:0.264583;stroke-opacity:1"
           d="m 109.01867,31.052737 c -0.66299,0 -3.59327,1.788202 -4.92632,3.006534 -2.43705,2.227326 -3.27235,4.089694 -3.27835,7.312216 -0.004,2.124045 0.43473,3.707526 1.92236,6.934977 0.4554,0.988007 0.88755,1.796273 0.96015,1.796273 0.42054,0 2.48675,-2.020711 3.16828,-3.09852 1.08931,-1.722689 1.16734,-2.258102 1.22163,-8.374682 0.044,-4.954547 0.0888,-5.406667 0.63924,-6.452319 0.34917,-0.663366 0.46944,-1.124479 0.29301,-1.124479 z"
           id="path822" />
        <path
           style="fill:#26bc51;fill-opacity:1;stroke:#000000;stroke-width:0.264583;stroke-opacity:1"
           d="m 84.618091,30.739579 0.901237,1.099674 c 1.464275,1.786673 1.752359,2.367978 3.025653,6.104019 1.828787,5.365944 2.755283,6.684772 5.813084,8.272881 2.039516,1.059246 2.176097,0.99886 2.396236,-1.056783 0.285583,-2.666717 -0.01883,-6.066269 -0.702284,-7.843967 -1.394264,-3.62653 -4.783283,-5.823691 -9.871231,-6.399091 z"
           id="path869" />
        <path
           style="fill:#26bc51;fill-opacity:1;stroke:#000000;stroke-width:0.266444;stroke-opacity:1"
           d="m 112.68566,81.462951 c -0.31869,-0.732424 -0.34076,-0.729542 -1.5922,0.199966 -1.87036,1.38923 -3.56271,3.806565 -3.93557,5.621757 -0.25024,1.218222 0.0425,1.832506 0.72984,1.533447 0.81679,-0.355428 3.1398,-2.522274 3.915,-3.651861 0.8556,-1.24676 1.24352,-2.874571 0.88293,-3.703309 z"
           id="path907-8" />
        <path
           style="fill:#26bc51;fill-opacity:1;stroke:#000000;stroke-width:0.264583;stroke-opacity:1"
           d="m 126.48347,92.042874 c -0.63847,0.04944 -1.46171,0.212545 -2.26756,0.473871 -1.51545,0.491437 -3.61459,2.092656 -4.39146,3.349668 -0.70134,1.1348 -0.6999,1.189429 0.0315,1.301212 1.02115,0.156062 2.88258,-0.29116 4.04264,-0.970999 1.28737,-0.754454 3.90028,-3.50696 3.74551,-3.945496 -0.0683,-0.193641 -0.52218,-0.257691 -1.16065,-0.208256 z"
           id="path917-7" />
        <path
           style="fill:#26bc51;fill-opacity:1;stroke:#000000;stroke-width:0.200983;stroke-opacity:1"
           d="m 86.679998,94.755261 c 0.247323,0.366719 0.651149,0.817476 1.133332,1.236109 0.906773,0.787264 2.949523,1.673102 4.273379,1.853225 1.195155,0.162611 1.241382,0.149613 1.101997,-0.307927 -0.194604,-0.638797 -1.17471,-1.64057 -2.128357,-2.175703 -1.058309,-0.59386 -4.250061,-1.527679 -4.575147,-1.338621 -0.143566,0.08346 -0.05251,0.366207 0.194796,0.732927 z"
           id="path917-7-7" />
        <path
           style="fill:#26bc51;fill-opacity:1;stroke:#000000;stroke-width:0.264583;stroke-opacity:1"
           d="m 87.158697,80.687791 c -0.276926,0.881522 0.09811,4.183797 0.678209,5.21996 0.549933,0.982336 2.441828,2.205165 3.178458,2.054101 0.752784,-0.15434 0.879163,-0.378434 0.916168,-1.628031 0.04708,-1.590261 -0.470016,-2.649148 -1.69671,-3.474347 -0.585291,-0.393312 -1.453931,-1.097284 -1.930849,-1.563532 -0.476923,-0.46624 -0.920493,-0.837051 -0.985479,-0.824096 -0.06748,0.01347 -0.120209,0.08996 -0.15977,0.215904 z"
           id="path891-3" />
      </g>
      <path
         id="path1434"
         style="fill:#000000;fill-opacity:1;stroke:none;stroke-width:0.264583;stroke-opacity:1;"
         d="M 105.18127 93.508515 C 104.96971 93.509405 104.75508 93.514691 104.54093 93.522091 C 104.32673 93.530091 104.11389 93.541232 103.90059 93.556032 C 103.68729 93.570832 103.47356 93.587536 103.26477 93.610336 C 103.05604 93.633236 102.84997 93.662456 102.64932 93.694056 C 102.45488 93.724756 102.26703 93.758519 102.08365 93.798139 L 101.81892 94.065136 C 101.16983 94.714226 101.06773 95.054827 100.90705 97.144655 C 100.80307 98.497393 100.51452 99.975237 100.22825 100.62241 C 99.463421 102.35098 99.338653 103.29128 99.689728 104.6613 C 100.03714 106.01688 100.14272 105.68148 98.298175 109.04639 C 97.291351 110.88256 96.727462 112.84366 96.578532 115.01989 C 96.477242 116.50038 96.301494 117.35216 96.067164 117.49074 C 95.870395 117.60711 95.707397 117.93202 95.707397 118.21028 C 95.707397 118.48855 95.428028 119.59917 95.085158 120.67887 C 94.742383 121.75856 94.548455 122.80349 94.652985 123.00265 C 94.757514 123.20181 94.687504 124.85372 94.499122 126.67273 C 94.310692 128.49174 94.149354 130.06441 94.139354 130.16632 C 94.129554 130.26822 92.285668 130.27885 90.041627 130.19121 C 85.443895 130.01165 83.861736 130.27854 82.99788 131.37686 C 82.407806 132.12702 82.340582 133.16022 82.785187 134.64418 C 83.036986 135.48462 83.021072 135.74947 82.699205 136.13077 C 81.827139 137.16375 81.593365 138.66899 81.941205 141.00686 C 82.67619 145.94713 84.08595 149.87566 86.145278 152.73437 C 89.336107 157.16322 92.199897 159.75575 96.150884 161.78964 C 98.400072 162.94693 99.274477 163.25649 101.59491 163.71519 C 102.78396 163.95781 104.04054 164.32857 105.56367 164.4302 C 106.4731 164.4768 108.08149 164.51366 109.13645 164.51166 C 111.50626 164.51076 111.55311 164.5235 112.59836 164.4483 C 113.15821 164.4591 113.6826 164.25472 114.26144 164.08854 C 115.16858 163.80421 117.01215 162.74327 117.55365 161.71271 C 117.85438 161.14035 118.33129 160.62828 118.61259 160.57458 C 119.40258 160.42384 122.41186 158.35898 123.92538 156.92939 C 126.14239 154.83581 128.20204 151.08566 129.42823 146.91247 C 129.68474 146.0399 130.0721 144.79099 130.28805 144.13615 C 131.45794 140.58838 131.68153 138.51734 131.03248 137.26211 C 130.76259 136.74024 130.69004 136.12387 130.80168 135.30941 C 131.0506 133.49329 130.78113 132.84489 129.50516 132.19369 C 128.435 131.6475 128.16322 131.62961 123.45474 131.79319 L 118.5266 131.96289 L 118.25282 130.97184 C 118.10188 130.42635 117.60283 129.02707 117.1441 127.8629 C 115.23884 123.02804 115.02788 122.35406 115.31585 122.00707 C 115.51739 121.76416 115.4745 121.46229 115.16425 120.93003 C 114.92711 120.5231 114.5242 119.4771 114.26823 118.60399 C 113.90291 117.35768 113.68013 116.99756 113.22965 116.93186 C 112.90926 116.88516 112.325 116.35988 111.90598 115.74169 C 111.49336 115.13285 110.60566 113.85196 109.93518 112.89522 C 109.09273 111.6932 108.78789 111.04058 108.94638 110.78414 C 109.0908 110.55046 109.03922 110.2632 108.80836 110.00803 C 108.60664 109.78515 108.38241 109.27772 108.31057 108.88122 C 108.23867 108.48471 108.10748 108.04287 108.01868 107.89921 C 107.92988 107.75556 108.15827 107.56376 108.52552 107.47156 C 110.07861 107.08177 110.70295 104.6503 110.08452 101.40756 C 109.89006 100.38791 109.73171 98.921597 109.73154 98.149288 C 109.73105 95.94158 109.2409 94.390732 108.38976 93.902223 C 108.26848 93.832623 108.17427 93.769786 108.08882 93.703106 C 108.03902 93.695106 108.01055 93.685817 107.95759 93.678217 C 107.67052 93.637317 107.33647 93.602453 106.97332 93.574133 C 106.61023 93.545833 106.21828 93.525003 105.80804 93.515303 C 105.60296 93.510303 105.39283 93.507515 105.18127 93.508515 z M 102.78961 94.266516 C 102.79361 94.266366 102.79712 94.266596 102.80092 94.266516 C 102.80492 94.266426 102.80834 94.266546 102.81224 94.266516 C 102.81924 94.266436 102.8252 94.266436 102.8326 94.266516 C 103.05539 94.268516 103.31893 94.357234 103.62907 94.517674 C 104.34352 94.887154 104.69219 94.90841 105.89854 94.657961 C 108.24755 94.170271 108.87742 94.930284 108.96222 98.361981 C 108.98562 99.30787 109.1268 101.04315 109.27674 102.21534 C 109.58004 104.58746 109.46121 105.40726 108.67712 106.33343 C 108.20396 106.8923 108.10688 106.9157 107.81278 106.54839 C 107.63083 106.32109 107.27318 106.05569 107.01857 105.96009 C 106.45079 105.74703 106.4199 105.15352 106.95296 104.71108 C 107.17124 104.52992 107.34893 104.0943 107.34893 103.74265 C 107.34893 103.10944 107.32679 103.10581 105.0342 103.18151 L 102.71947 103.25617 L 102.70363 104.05038 C 102.69463 104.48695 102.59967 105.28994 102.4932 105.83564 C 102.38673 106.38082 102.19028 106.82896 102.05876 106.82896 C 101.9273 106.82896 101.50215 106.41151 101.11296 105.90126 C 100.11528 104.59315 99.977634 102.97322 100.71925 101.24917 C 101.05313 100.47303 101.40842 98.866021 101.55192 97.479532 C 101.78616 95.215445 102.0929 94.295836 102.78961 94.266516 z M 104.8215 103.91914 C 105.33941 103.91914 105.76278 104.03836 105.76278 104.18388 C 105.76278 104.32941 105.41236 104.44861 104.98442 104.44861 C 104.55645 104.44861 104.13304 104.32941 104.04314 104.18388 C 103.94584 104.02643 104.26113 103.91914 104.8215 103.91914 z M 103.7603 105.07085 C 103.7653 105.07073 103.7729 105.07095 103.7784 105.07085 C 103.7834 105.07076 103.78864 105.07086 103.79424 105.07085 C 103.96346 105.07061 104.19405 105.09566 104.50473 105.14326 C 105.81039 105.34325 105.87336 105.3753 105.6406 105.75192 C 105.5447 105.90717 105.32517 106.01809 105.15186 105.99629 C 103.74226 105.81894 103.38017 105.68797 103.38017 105.35369 C 103.38017 105.16583 103.47406 105.07739 103.7603 105.07085 z M 104.72647 106.57101 C 104.73147 106.57092 104.73555 106.57111 104.74005 106.57101 L 104.74231 106.57101 C 104.74731 106.57091 104.75099 106.57103 104.75589 106.57101 C 105.34323 106.56901 105.64611 106.84679 105.713 107.42631 C 105.7935 108.12335 105.74953 108.15263 104.58845 108.15263 C 103.47858 108.15263 103.38017 108.09944 103.38017 107.49645 C 103.38017 107.02265 103.56043 106.7934 104.02277 106.67736 C 104.29139 106.60996 104.52454 106.57483 104.72647 106.57101 z M 100.6921 106.82896 C 100.6941 106.82881 100.69462 106.82896 100.69662 106.82896 C 100.81813 106.82896 101.13129 107.06432 101.39127 107.35164 C 101.8062 107.81013 101.82255 107.98032 101.5225 108.74093 C 101.33446 109.21758 101.07902 109.72045 100.95683 109.8587 C 100.83465 109.99694 100.73509 110.41935 100.73509 110.79771 C 100.73509 111.17606 100.63319 111.59848 100.50882 111.73673 C 100.16836 112.11498 98.918301 116.31814 98.741661 117.67628 C 98.656491 118.33112 98.532013 119.13412 98.465613 119.46154 C 98.399254 119.78896 98.228232 120.05889 98.085482 120.05889 C 97.754732 120.05889 97.752733 119.62902 98.080957 119.01579 C 98.274066 118.65498 98.208801 118.42079 97.816222 118.06547 C 97.190113 117.49885 97.132217 115.7346 97.660097 113.31156 C 98.009913 111.70615 100.27513 106.86674 100.6921 106.82896 z M 106.83756 107.09369 C 106.99164 107.09369 107.04286 107.21291 106.95296 107.35843 C 106.86306 107.50396 106.73658 107.62316 106.67238 107.62316 C 106.60818 107.62316 106.55699 107.50396 106.55699 107.35843 C 106.55699 107.21291 106.68345 107.09369 106.83756 107.09369 z M 103.11544 108.87217 C 103.13494 108.87196 103.15377 108.87214 103.17427 108.87217 C 103.39356 108.87255 103.67688 108.88657 104.04314 108.90837 C 105.55328 108.99797 106.11952 109.28647 105.93475 109.87227 C 105.84665 110.15148 104.96936 110.21459 103.29871 110.06234 C 102.43492 109.98364 102.30278 109.88809 102.37328 109.39258 C 102.42848 109.00472 102.51225 108.87862 103.11544 108.87217 z M 107.25163 108.94457 C 107.48344 108.94457 107.61791 109.13059 107.56841 109.3858 C 107.46538 109.9172 106.93656 110.13959 106.69727 109.75235 C 106.46463 109.37595 106.76011 108.94457 107.25163 108.94457 z M 101.95694 111.35207 C 101.96494 111.35178 101.97363 111.35176 101.98183 111.35207 C 102.06873 111.35507 102.18727 111.39268 102.34612 111.44258 C 102.69667 111.55277 103.71752 111.70532 104.61334 111.77972 L 106.24247 111.91548 L 106.82851 113.51973 C 107.30369 114.82299 107.38042 115.43985 107.24258 116.78478 C 107.09053 118.26947 107.02836 129.78273 107.16339 131.43569 C 107.21369 132.05118 107.1249 132.10112 105.89402 132.17332 C 103.57408 132.30945 103.652 132.54292 103.37565 124.54807 C 103.16894 118.5677 103.05339 117.31198 102.58597 115.95664 C 102.28491 115.08352 101.96372 113.66622 101.87322 112.80698 C 101.75399 111.67434 101.72171 111.36121 101.95694 111.35207 z M 107.44848 111.64622 C 107.66213 111.64022 107.87839 112.08383 107.87839 112.66669 C 107.87839 113.09466 107.7739 113.44279 107.64534 113.44279 C 107.38011 113.44279 107.06795 112.09836 107.26068 111.78651 C 107.31938 111.69141 107.38307 111.64818 107.44848 111.64622 z M 100.89348 113.62607 C 100.89448 113.62596 100.897 113.62618 100.898 113.62607 L 100.90027 113.62607 C 101.03322 113.62697 101.20802 114.06893 101.29397 114.63297 C 101.38267 115.21505 101.65956 116.156 101.90942 116.72369 C 102.27156 117.54644 102.41028 119.07175 102.59954 124.23582 C 102.73009 127.79913 102.784 130.80264 102.7172 130.91074 C 102.49365 131.27246 101.41252 131.31559 99.544916 131.03746 L 97.691774 130.76141 L 97.786807 128.38558 C 97.860687 126.54047 97.987876 125.91166 98.352479 125.56628 C 98.610649 125.32173 98.967843 124.4895 99.146683 123.7154 C 99.325522 122.94131 99.637155 122.04427 99.839065 121.72197 C 100.32409 120.94771 100.30236 120.69815 99.703304 120.13356 C 99.263904 119.71946 99.230246 119.47861 99.438569 118.20575 C 99.749259 116.30732 100.57827 113.69434 100.88895 113.62834 C 100.89095 113.62789 100.89148 113.62625 100.89348 113.62607 z M 108.98711 113.62834 L 108.98937 113.62834 L 108.99164 113.62834 C 109.10807 113.62634 109.79829 114.47407 110.54384 115.53578 C 111.71452 117.20284 111.8765 117.5728 111.61409 117.99306 C 111.35821 118.40279 111.43614 118.67874 112.06889 119.60409 C 112.48882 120.21817 112.98824 121.15715 113.17987 121.69255 C 113.37151 122.22795 113.71551 122.71598 113.94466 122.77638 C 114.1771 122.83768 114.59287 123.57679 114.88368 124.44851 C 115.17043 125.30792 115.91498 127.32055 116.5377 128.91958 C 117.16046 130.51911 117.66904 131.91816 117.66904 132.02851 C 117.66904 132.28885 115.35772 132.29123 115.20045 132.03077 C 115.00471 131.70669 113.75961 127.9547 113.43782 126.71798 C 113.20757 125.83357 113.21492 125.48387 113.4695 125.17709 C 113.70167 124.89739 113.71324 124.72802 113.51022 124.60237 C 113.35187 124.50427 112.9554 123.50141 112.62778 122.37362 C 112.12239 120.6342 111.94458 120.32137 111.46023 120.32137 C 110.59714 120.32137 108.3703 115.79165 108.62508 114.55377 C 108.72388 114.07362 108.88756 113.65754 108.98711 113.62834 z M 108.22685 117.0993 L 108.22911 117.0993 L 108.23137 117.0993 L 108.23364 117.0993 C 108.41287 117.1003 108.6962 117.54233 109.17265 118.54063 C 110.10808 120.50071 110.14903 120.73617 109.60256 120.94587 C 109.28385 121.06817 109.40972 121.50816 110.27006 123.29001 C 110.8524 124.4961 111.55144 125.66025 111.82226 125.87853 C 112.3058 126.26828 113.51781 129.61431 113.83605 131.43569 L 113.99897 132.36113 L 112.03269 132.44485 C 110.42908 132.51345 110.03725 132.45287 109.90576 132.10997 C 109.81716 131.87893 109.32341 131.44183 108.81062 131.13928 L 107.87839 130.58944 L 107.88292 124.06611 C 107.88492 120.47885 107.99127 117.38124 108.11824 117.18075 C 108.14954 117.13126 108.18554 117.1022 108.22685 117.0993 z M 112.8993 118.08583 C 112.9136 118.08552 112.92799 118.08632 112.94229 118.08809 C 113.34096 118.12499 113.70029 118.79531 113.70029 119.59278 C 113.70029 119.93833 113.87581 120.45296 114.08947 120.73544 C 114.30307 121.01791 114.48044 121.33904 114.48544 121.44818 C 114.50884 122.0002 113.95643 121.50388 113.21155 120.30553 C 112.28567 118.81602 112.18838 118.33581 112.77033 118.11298 C 112.81353 118.09638 112.85641 118.08673 112.8993 118.08583 z M 97.293541 118.49311 C 97.299341 118.49303 97.30372 118.49313 97.30938 118.49311 C 97.3396 118.49303 97.36739 118.4932 97.393099 118.49538 C 97.495946 118.50238 97.560538 118.52257 97.560538 118.55647 C 97.560538 118.62437 97.202871 119.40074 96.766335 120.28064 C 96.329775 121.16029 95.972132 122.00725 95.972132 122.16093 C 95.972132 122.31461 95.841545 122.43924 95.680245 122.43924 C 95.502915 122.43924 95.452434 122.20404 95.553534 121.84415 C 95.645514 121.51673 95.880163 120.653 96.073952 119.9254 C 96.343102 118.91485 96.559178 118.5826 96.992604 118.518 C 97.102324 118.5016 97.206416 118.49441 97.293541 118.49311 z M 98.691882 120.62457 C 98.695382 120.62446 98.699756 120.62457 98.703196 120.62457 C 99.127759 120.62486 99.175212 121.42577 98.784652 122.49807 C 98.557693 123.12115 98.339675 123.91736 98.298175 124.26976 C 98.209645 125.0217 97.552177 125.36166 97.576377 124.6431 C 97.617987 123.40623 98.275615 120.74526 98.562909 120.64946 C 98.597309 120.63796 98.629325 120.63033 98.660205 120.62683 C 98.671065 120.62583 98.681432 120.62557 98.691882 120.62457 z M 110.78369 121.11331 C 110.87569 121.11131 110.99073 121.13548 111.12761 121.18798 C 111.42865 121.30349 112.37662 123.92324 112.37662 124.63857 C 112.37662 125.20199 111.87548 124.61805 111.12309 123.17461 C 110.4468 121.87689 110.32124 121.16469 110.74522 121.11557 C 110.75742 121.11457 110.77059 121.11431 110.78369 121.11331 z M 97.171356 121.47534 C 97.174456 121.47494 97.177407 121.4755 97.180407 121.47534 C 97.183407 121.47515 97.186558 121.47519 97.189458 121.47534 C 97.274647 121.48034 97.295804 121.61114 97.295804 121.89393 C 97.295804 122.21111 97.16509 122.98476 97.00618 123.61584 C 96.81058 124.39203 96.803859 124.92507 96.983553 125.26081 C 97.163536 125.59722 97.148696 126.52047 96.936037 128.13216 C 96.628224 130.46539 96.607872 130.51053 95.863523 130.59623 L 95.105522 130.68448 L 95.272961 129.40606 C 95.365031 128.70322 95.519427 127.08628 95.614627 125.81291 C 95.721917 124.37835 95.922503 123.38344 96.144096 123.1995 C 96.340826 123.03622 96.5016 122.69464 96.5016 122.43924 C 96.5016 122.18383 96.681544 121.82619 96.899834 121.64504 C 97.024397 121.54167 97.111326 121.48318 97.171356 121.47534 z M 93.444709 131.17095 C 93.671579 131.17095 93.856518 131.29017 93.856518 131.43569 C 93.856518 131.58121 93.744553 131.70042 93.607623 131.70042 C 93.470683 131.70042 93.283487 131.58121 93.193551 131.43569 C 93.103611 131.29017 93.217839 131.17095 93.444709 131.17095 z M 92.202494 131.20263 C 92.3128 131.19963 92.411874 131.22424 92.462703 131.27504 C 92.550623 131.36304 92.393165 131.42682 92.114249 131.41532 C 91.806023 131.40262 91.742532 131.33915 91.953598 131.25467 C 92.034178 131.22247 92.122 131.20493 92.202494 131.20263 z M 108.32867 131.70721 C 108.51944 131.70021 108.83283 132.03687 109.14776 132.65075 C 109.46669 133.2724 110.0849 133.84197 110.93755 134.30251 C 111.65419 134.68955 112.22 135.12228 112.1956 135.26416 C 112.1712 135.40605 112.05318 135.55146 111.93313 135.58546 C 111.60537 135.67826 109.3853 134.30072 108.98937 133.75947 C 108.79921 133.49956 108.41959 133.28657 108.14539 133.28657 C 107.50488 133.28657 107.23185 132.85982 107.74716 132.66206 C 107.9646 132.57866 108.14313 132.32829 108.14313 132.10544 C 108.14313 131.83965 108.21427 131.71155 108.32867 131.70721 z M 95.687033 131.73436 C 95.814296 131.73236 95.943378 131.74967 96.040012 131.78867 C 96.221912 131.86207 96.071196 131.92217 95.707397 131.92217 C 95.343571 131.92217 95.195145 131.86211 95.377045 131.78867 C 95.462315 131.75427 95.574743 131.73656 95.687033 131.73436 z M 85.699529 131.78867 C 86.258522 131.78667 86.943087 131.83448 87.769888 131.92669 C 89.152331 132.08082 91.094784 132.28745 92.084834 132.38375 C 93.679164 132.5389 93.875577 132.6169 93.804477 133.0784 C 93.730587 133.55777 93.488106 133.60321 90.774738 133.64181 C 88.283109 133.67721 87.74009 133.76353 87.269834 134.18938 C 86.963702 134.46659 86.713213 134.85347 86.713213 135.0492 C 86.713213 135.29859 86.32646 135.40444 85.423481 135.40444 L 84.136012 135.40444 L 83.803397 134.22332 C 83.312402 132.46962 83.703116 131.79755 85.699529 131.78867 z M 100.18299 131.9991 C 100.31025 131.9971 100.43934 132.0144 100.53597 132.0534 C 100.71787 132.1268 100.56945 132.1869 100.20562 132.1869 C 99.841792 132.1869 99.693368 132.12684 99.875268 132.0534 C 99.960538 132.019 100.0707 132.0013 100.18299 131.9991 z M 102.57918 132.01267 C 102.58218 132.01261 102.58523 132.01262 102.58823 132.01267 C 102.59523 132.01279 102.60209 132.01437 102.60859 132.01494 C 102.73331 132.02664 102.85546 132.12822 103.04077 132.29551 C 103.32293 132.55018 103.81321 132.7571 104.12912 132.7571 C 105.27155 132.7571 104.67094 133.21696 103.31908 133.37707 C 102.173 133.51281 101.79607 133.70008 101.13559 134.45864 C 100.69672 134.96272 99.877545 135.56049 99.314121 135.78684 C 98.056379 136.29212 97.560538 136.30647 97.560538 135.84114 C 97.560538 135.30328 98.381445 134.67162 99.664838 134.21879 C 100.32679 133.98522 101.17943 133.39169 101.67184 132.82272 C 102.16375 132.25437 102.37992 132.01651 102.57918 132.01267 z M 95.429086 132.7571 C 96.162832 132.7571 96.2806 133.09457 96.080741 134.60119 C 95.880501 136.11064 95.336542 136.38531 95.080633 135.10577 C 94.761283 133.509 94.872967 132.7571 95.429086 132.7571 z M 98.175989 133.02636 C 98.345777 133.02036 98.510443 133.07346 98.635315 133.19832 C 98.759065 133.32207 98.500818 133.62899 98.060592 133.88165 C 97.268963 134.33597 97.25992 134.33463 97.34332 133.75042 C 97.40295 133.33253 97.802449 133.03917 98.175989 133.02636 z M 114.00123 133.08066 C 114.01023 133.08059 114.01928 133.08062 114.02838 133.08066 C 114.04918 133.08075 114.06987 133.08 114.08947 133.08066 C 114.3497 133.08966 114.49449 133.15381 114.49449 133.2662 C 114.49449 133.42359 114.22683 133.55383 113.89941 133.55583 C 113.57203 133.55783 112.8567 133.63078 112.311 133.721 C 111.65276 133.82941 111.31768 133.78374 111.31768 133.58524 C 111.31768 133.42068 111.58764 133.28252 111.91503 133.27752 C 112.24245 133.27252 112.9555 133.20275 113.50117 133.12365 C 113.69301 133.09585 113.86097 133.08176 114.00123 133.08066 z M 128.2539 133.33408 C 128.35949 133.33378 128.45895 133.33328 128.55257 133.33408 C 128.98055 133.33808 129.28029 133.35523 129.40334 133.38612 C 129.95835 133.52542 130.10478 133.72056 130.10478 134.31835 C 130.10478 134.73432 129.95406 135.18999 129.77216 135.33204 C 129.58242 135.48024 126.67389 135.61591 122.94563 135.64881 L 116.44719 135.70538 L 116.12137 134.99037 C 115.94231 134.59749 115.8499 134.22553 115.9132 134.16223 C 116.18639 133.88903 124.98096 133.34343 128.2539 133.33408 z M 106.61355 133.83866 C 106.63275 133.83855 106.65368 133.83864 106.67238 133.83866 C 107.83446 133.83939 108.15603 133.96442 108.8966 134.63739 C 109.38343 135.08005 109.74111 135.48215 109.69081 135.53115 C 109.54087 135.67701 101.52834 135.81292 101.53834 135.66918 C 101.54334 135.59638 101.78652 135.24907 102.07913 134.8976 C 102.6639 134.19518 104.10999 133.85443 106.55699 133.84093 C 106.57659 133.84083 106.59435 133.83876 106.61355 133.83866 z M 113.77496 134.31383 C 114.23828 134.30883 114.74674 134.46526 114.8701 134.78673 C 115.10403 135.39631 114.76799 135.60414 113.83605 135.42254 C 113.37609 135.33294 113.00747 135.07531 112.95587 134.80709 C 112.89387 134.48497 113.31161 134.31864 113.77496 134.31383 z M 91.240851 134.61024 L 93.625724 134.61024 L 93.542005 135.33656 C 93.476845 135.90287 93.312397 136.07349 92.797581 136.09909 C 91.673983 136.15499 87.505154 135.61464 87.505154 135.41349 C 87.505154 134.94155 89.04939 134.61024 91.240851 134.61024 z M 119.24388 136.32083 C 122.74684 136.31183 128.92507 136.529 129.16576 136.75527 C 129.41479 136.98981 118.66654 137.03557 117.46993 136.80505 C 117.14254 136.74195 116.87484 136.58298 116.87484 136.45207 C 116.87484 136.37487 117.62252 136.33623 118.74835 136.32536 C 118.90664 136.32336 119.0716 136.32083 119.24388 136.32083 z M 107.34893 136.46112 C 108.93638 136.46112 109.99627 136.5671 109.99627 136.72585 C 109.99627 136.8846 108.93638 136.99059 107.34893 136.99059 C 105.76145 136.99059 104.70384 136.8846 104.70384 136.72585 C 104.70384 136.5671 105.76145 136.46112 107.34893 136.46112 z M 84.439212 136.5471 C 85.75103 136.5411 89.399175 136.73405 92.003377 136.97022 L 94.252489 137.17386 L 91.342672 137.18065 C 88.455903 137.18665 84.522494 136.8773 83.961785 136.6014 C 83.888515 136.5654 84.071905 136.5487 84.439212 136.5471 z M 99.35485 137.28926 C 99.508865 137.28885 99.653395 137.30723 99.748557 137.34583 C 99.927683 137.41833 99.71674 137.47301 99.280181 137.46801 C 98.843626 137.46301 98.696924 137.40385 98.954354 137.33678 C 99.075024 137.30538 99.218958 137.28956 99.35485 137.28926 z M 113.79759 137.52006 C 113.81279 137.52 113.82754 137.52006 113.84284 137.52006 L 115.57153 137.52006 L 116.09195 138.73286 C 116.37782 139.39937 116.61011 139.99583 116.61011 140.05653 C 116.61011 140.36227 116.06675 140.10305 115.74576 139.64472 C 115.35027 139.08046 113.32516 138.06531 112.57573 138.05631 C 112.32107 138.05331 112.11188 137.93031 112.11188 137.78479 C 112.11188 137.63773 112.84347 137.52358 113.79759 137.52006 z M 119.9521 137.59699 C 123.88522 137.59099 130.23068 137.82799 130.5641 138.10383 C 130.93717 138.41251 130.84812 138.93638 129.95996 141.62231 C 129.62312 142.64095 129.02544 144.7238 128.63177 146.25177 C 127.99803 148.71121 127.41782 150.16791 125.94143 152.9991 C 125.16973 154.47899 123.76266 155.99 121.57218 157.69644 C 120.37125 158.63196 119.12955 159.53741 118.8117 159.70571 C 117.61548 160.33858 117.46252 160.15174 117.26629 157.796 C 117.09123 155.69447 117.2736 153.70603 117.61021 154.0422 C 117.69521 154.1275 117.73372 154.85932 117.6962 155.66907 C 117.6311 157.07469 117.65622 157.1393 118.24377 157.0561 C 118.78179 156.9799 118.85346 156.83306 118.81396 155.89308 C 118.76986 154.84508 118.79677 154.8109 119.8729 154.5151 C 120.76263 154.27054 121.16031 153.9398 121.92516 152.8113 C 123.16763 150.97813 123.28145 150.61277 122.966 149.46478 C 122.67454 148.40408 121.68112 147.61855 119.91816 147.05502 C 118.55118 146.6186 118.55817 146.63063 118.35011 144.97335 L 118.17362 143.56143 L 119.06739 144.2425 C 120.0529 144.99424 123.53126 145.97651 125.22868 145.98251 C 126.51491 145.98751 127.16079 145.40696 127.9688 143.51844 C 128.72621 141.74772 128.6904 140.31605 127.86698 139.49312 C 127.26484 138.89098 127.02809 138.84373 124.59739 138.84373 C 120.29353 138.84373 118.19851 139.46409 118.19851 140.7376 C 118.19851 141.70704 117.79218 141.19213 117.33869 139.64924 C 117.08403 138.78263 116.87484 137.9382 116.87484 137.77348 C 116.87484 137.65176 118.16433 137.59951 119.9521 137.59699 z M 84.289874 137.64677 C 84.651721 137.63677 85.070212 137.68201 85.536615 137.78479 C 86.110163 137.91121 89.319408 138.08714 92.666345 138.17624 C 96.013277 138.26533 100.53669 138.50767 102.71947 138.71475 C 110.81861 139.48314 110.81135 139.48186 109.58899 140.2828 C 108.59771 140.93232 104.7788 140.71803 102.91632 139.90945 C 101.84711 139.44504 101.20787 139.33546 100.15584 139.43655 C 98.948809 139.55253 98.651984 139.71175 97.644258 140.77833 C 96.337082 142.16183 96.211825 142.92493 97.024281 144.51855 C 97.311091 145.08111 97.740889 146.14606 97.981398 146.88758 C 98.221908 147.6291 98.634157 148.65226 98.897787 149.16158 C 99.161427 149.67091 99.563612 150.50797 99.791549 151.01925 C 100.39074 152.36327 103.9718 156.14714 105.86234 157.43623 C 108.75406 159.40787 110.42823 160.08336 112.51012 160.11526 L 114.361 160.14241 L 115.0217 158.821 C 115.62173 157.62092 115.68297 157.20093 115.66657 154.30467 C 115.64727 150.90708 115.27724 149.00595 114.46508 148.13432 C 113.78095 147.39998 113.83465 147.30624 114.74565 147.65011 C 115.40191 147.89782 115.6124 147.86655 116.07159 147.45099 L 116.6169 146.95773 L 116.54901 154.46985 L 116.47887 161.98424 L 115.343 162.611 C 114.03737 163.33111 110.28811 163.70593 107.34893 163.40973 C 106.40306 163.31443 105.03546 163.2026 104.30787 163.1631 C 103.01026 163.0926 102.34526 162.9294 98.884211 161.81906 C 96.802739 161.15131 94.634676 160.14351 93.958339 159.53148 C 93.68449 159.28368 92.768523 158.49699 91.924183 157.78242 C 88.724333 155.07438 85.783398 150.90521 84.53877 147.31071 C 83.396961 144.01314 82.554068 139.63008 82.841754 138.48396 C 82.974023 137.95689 83.493797 137.66879 84.289874 137.64677 z M 105.09981 137.85493 C 105.11801 137.85471 105.13698 137.85503 105.15638 137.85493 C 105.17578 137.85482 105.19707 137.8548 105.21747 137.85493 C 105.83107 137.85893 106.92862 137.93887 107.74716 138.04047 L 109.3333 138.23733 L 108.01189 138.2328 C 107.28432 138.2318 106.09213 138.1493 105.36455 138.04952 C 104.11294 137.87782 104.09853 137.86713 105.09981 137.85493 z M 88.33556 139.4275 C 85.680796 139.4077 84.855493 140.18529 84.86686 142.36221 C 84.87316 143.55865 85.576803 145.37625 86.249362 145.93273 C 86.477319 146.12134 87.477946 146.43852 88.473584 146.63642 C 92.253638 147.38777 93.787651 147.04131 94.847576 145.19962 C 95.803061 143.53941 95.862805 142.46308 95.07837 141.12452 C 94.314175 139.82051 94.365194 139.83514 89.589089 139.48407 C 89.132325 139.45047 88.714818 139.4303 88.33556 139.4275 z M 123.83713 139.6764 C 123.88953 139.67631 123.94144 139.67625 123.99326 139.6764 C 124.10379 139.6767 124.21444 139.67892 124.32135 139.68092 C 125.34773 139.69412 126.17622 139.75606 126.25142 139.87778 C 126.49012 140.264 125.22619 142.44964 124.55667 142.80796 C 123.14263 143.56455 120.92765 142.69452 120.34807 141.15393 C 120.14145 140.60496 120.05159 140.07696 120.14669 139.98186 C 120.33606 139.79249 122.21263 139.67907 123.83713 139.6764 z M 112.60967 140.16966 C 114.45554 140.16266 116.50474 142.22063 116.19377 143.7696 C 115.84858 145.48879 114.75603 146.1564 111.71139 146.50519 C 107.49653 146.98803 101.8735 146.60667 99.606008 145.6861 C 98.679164 145.30981 97.560538 143.99943 97.560538 143.28765 C 97.560538 142.47581 98.567509 141.00002 99.424993 140.55658 C 100.48318 140.00935 101.1806 140.06976 102.85297 140.85299 C 104.12206 141.44739 104.6351 141.53111 106.86924 141.50691 C 109.07764 141.48291 109.58846 141.38887 110.57326 140.82584 C 111.20153 140.46663 112.11753 140.17166 112.60967 140.16966 z M 127.52079 140.19682 C 127.64908 140.19482 127.72217 140.4072 127.72217 140.83716 C 127.72217 141.71201 127.08221 143.22425 126.24689 144.31943 C 125.88019 144.80021 125.37638 145.18599 125.12913 145.17699 C 124.05478 145.13589 120.01719 143.92169 119.5516 143.50034 C 118.69953 142.72926 118.36308 141.63967 118.75513 140.91861 C 119.07932 140.3222 119.09762 140.31852 119.2665 140.82811 C 119.363 141.11914 119.53585 141.62997 119.6489 141.96397 C 119.91086 142.73793 121.57661 143.59328 123.19905 143.78544 C 124.33372 143.91982 124.54931 143.85184 125.38255 143.12021 C 125.89132 142.67349 126.52425 141.82671 126.78994 141.23765 C 127.0993 140.5516 127.35583 140.19877 127.52079 140.19682 z M 90.061991 140.43213 C 90.081381 140.43193 90.100881 140.43213 90.120821 140.43213 C 90.702903 140.43213 91.252732 140.55134 91.342672 140.69687 C 91.441272 140.85641 91.087093 140.9616 90.448911 140.9616 C 89.866836 140.9616 89.314727 140.84239 89.224797 140.69687 C 89.129277 140.5423 89.461054 140.43845 90.061991 140.43213 z M 86.932694 140.52717 C 87.218142 140.52517 87.61845 140.70027 88.052724 141.06569 C 88.5026 141.44424 89.128019 141.766 89.444277 141.7807 C 89.691175 141.7922 89.965518 141.79495 90.245269 141.78975 C 90.525016 141.78475 90.811851 141.77204 91.082463 141.75354 C 91.623688 141.71654 92.10361 141.65556 92.356356 141.58158 C 92.452406 141.55348 92.52876 141.53799 92.589413 141.53859 C 92.619743 141.53891 92.646247 141.54327 92.668607 141.55217 C 92.690967 141.56117 92.710205 141.57313 92.725175 141.59063 C 92.740145 141.60803 92.750945 141.63141 92.759115 141.65851 C 92.767315 141.68551 92.772984 141.71624 92.774954 141.75354 C 92.778854 141.82804 92.769717 141.92351 92.752327 142.04317 C 92.744727 142.09537 92.733371 142.14761 92.713861 142.19929 C 92.694351 142.25099 92.66877 142.30386 92.63693 142.35542 C 92.60509 142.40702 92.566104 142.45747 92.521533 142.50928 C 92.476963 142.56108 92.425379 142.61299 92.36767 142.66541 C 92.136835 142.87511 91.799769 143.09197 91.342672 143.32611 C 91.034323 143.48405 90.797573 143.60885 90.61635 143.72208 C 90.52574 143.77868 90.448178 143.8319 90.383293 143.885 C 90.188641 144.04428 90.102286 144.19947 90.066516 144.41899 C 90.054596 144.49219 90.048492 144.57328 90.046152 144.66336 C 90.043852 144.75346 90.045215 144.85221 90.048415 144.9643 C 90.054515 145.17626 90.053327 145.34212 90.041627 145.47114 C 90.035827 145.53564 90.026945 145.5913 90.014475 145.63858 C 90.002005 145.68588 89.987538 145.72389 89.966958 145.75624 C 89.946378 145.78864 89.920207 145.81563 89.890027 145.83543 C 89.859847 145.85523 89.824934 145.86892 89.78368 145.87842 C 89.74242 145.88842 89.694938 145.89266 89.641131 145.89426 C 89.587321 145.89626 89.525694 145.89355 89.457853 145.88974 C 89.309142 145.88074 89.173651 145.86735 89.048307 145.84675 C 88.421594 145.7436 88.062826 145.46492 87.713321 144.74708 C 87.643421 144.6035 87.573985 144.44362 87.502891 144.26287 C 87.431801 144.08211 87.357529 143.88087 87.281148 143.65873 C 87.113554 143.17133 86.946786 142.66185 86.810509 142.23323 C 86.674229 141.80461 86.569115 141.45702 86.529935 141.29422 C 86.514845 141.23152 86.504218 141.17291 86.498258 141.11773 C 86.492258 141.06253 86.491132 141.01146 86.493732 140.96387 C 86.496332 140.91627 86.503447 140.87258 86.514097 140.83263 C 86.524797 140.79273 86.538858 140.75613 86.557088 140.72402 C 86.575318 140.69182 86.597476 140.66234 86.622706 140.63804 C 86.647936 140.61374 86.676978 140.59335 86.708688 140.57695 C 86.740398 140.56055 86.775122 140.54914 86.812771 140.54074 C 86.850421 140.53274 86.889634 140.52747 86.932694 140.52717 z M 93.985492 141.33721 C 94.015282 141.33521 94.052352 141.34741 94.096363 141.37341 C 94.140373 141.39941 94.191689 141.43835 94.252489 141.48881 C 94.307059 141.53411 94.358913 141.59164 94.406352 141.65625 C 94.453792 141.72085 94.497092 141.79406 94.533062 141.86894 C 94.604992 142.01872 94.650722 142.18034 94.650722 142.31695 C 94.650722 142.59018 94.470769 142.81248 94.252489 142.81248 C 94.218989 142.81248 94.188889 142.80957 94.159719 142.80117 C 94.130539 142.79317 94.103142 142.7796 94.078262 142.7627 C 94.053372 142.7458 94.031011 142.72495 94.010381 142.69935 C 93.907197 142.57169 93.856518 142.33532 93.856518 141.9866 C 93.856518 141.87379 93.857144 141.77629 93.861044 141.69471 C 93.864944 141.61311 93.871768 141.54595 93.881408 141.49334 C 93.900688 141.3881 93.932389 141.34024 93.985492 141.33721 z M 94.105414 143.64968 C 94.206753 143.64768 94.314677 143.69375 94.419928 143.79901 C 94.579668 143.95874 94.475767 144.2842 94.139354 144.68825 L 93.609885 145.32633 L 93.600835 144.61358 C 93.593735 144.03979 93.825215 143.65653 94.105414 143.64968 z M 117.26629 143.82843 C 117.26929 143.82816 117.27234 143.8292 117.27534 143.83069 C 117.28984 143.83869 117.30625 143.87338 117.32285 143.93704 C 117.38935 144.1917 117.38935 144.60782 117.32285 144.86248 C 117.25635 145.11714 117.20067 144.90795 117.20067 144.39863 C 117.20067 144.04051 117.22719 143.83261 117.26629 143.82843 z M 92.311103 143.87142 C 92.320603 143.87126 92.331018 143.87142 92.340518 143.87142 C 92.753262 143.87142 92.796936 144.01336 92.643718 144.86248 C 92.545258 145.40819 92.414071 145.94351 92.351831 146.05265 C 92.176802 146.35961 91.352253 146.2885 90.998744 145.93499 C 90.2674 145.20363 91.110158 143.89187 92.311103 143.87142 z M 86.450741 144.13615 C 86.452941 144.13606 86.453067 144.13615 86.455267 144.13615 C 86.596221 144.13615 86.713213 144.31385 86.713213 144.53213 C 86.713213 144.75041 86.666319 144.93036 86.609129 144.93036 C 86.454714 144.85836 86.391538 144.68088 86.351183 144.53213 C 86.268733 144.31727 86.314891 144.14161 86.450741 144.13615 z M 99.264342 146.64321 C 99.453835 146.64021 99.924075 146.72697 100.44094 146.86496 C 101.41838 147.12585 101.68212 147.34728 102.14474 148.2995 C 102.44583 148.91922 102.78849 149.42632 102.90501 149.42632 C 103.02157 149.42632 103.11544 149.5555 103.11544 149.71142 C 103.11544 150.06597 103.81415 150.77321 104.54546 151.1618 C 106.90366 152.41484 107.10309 152.55999 106.76968 152.76605 C 106.57941 152.88359 106.11143 152.94643 105.72884 152.90633 C 105.21553 152.85253 104.86361 153.04926 104.38933 153.65528 C 103.77597 154.43896 103.72826 154.45384 103.31682 153.99921 C 103.00546 153.65514 102.92591 153.22574 103.02945 152.4538 C 103.14892 151.56304 103.05555 151.24794 102.47283 150.5554 C 102.00929 150.00452 101.4875 149.69577 100.92516 149.64127 C 100.16404 149.56757 100.0258 149.41506 99.576593 148.16148 C 99.301233 147.39306 99.123123 146.71881 99.180623 146.66131 C 99.191403 146.65051 99.220612 146.64391 99.264342 146.64321 z M 103.06113 147.34465 C 103.07013 147.34445 103.08035 147.34435 103.09055 147.34465 C 103.19897 147.34765 103.35142 147.37797 103.55214 147.42837 C 103.93682 147.52487 105.83755 147.60459 107.77657 147.60259 C 109.71561 147.60159 111.36051 147.69251 111.43081 147.80623 C 111.55044 147.99978 110.21937 149.74908 108.87171 151.17085 C 108.16677 151.91458 107.82806 151.92246 106.42349 151.22516 C 105.16623 150.60094 103.74669 149.30863 103.22631 148.31534 C 102.85153 147.59985 102.77025 147.35086 103.06113 147.34465 z M 119.11943 147.71346 C 119.6225 147.70446 120.74118 148.16554 121.26672 148.65927 L 121.87086 149.22494 L 121.29161 150.01462 C 120.97268 150.44798 120.3903 150.96902 119.99735 151.17311 C 119.20499 151.58466 118.73826 151.64631 118.70536 151.34508 C 118.64336 150.77695 118.78543 147.95918 118.88411 147.79945 C 118.91961 147.74205 119.00334 147.71556 119.11943 147.71346 z M 93.317999 147.85149 C 91.870642 147.86549 90.574162 148.29275 89.790468 149.01903 C 88.922818 149.82315 88.862904 151.16625 89.625292 152.74116 C 90.169067 153.86447 91.941114 155.51295 92.605252 155.51295 C 93.229679 155.51295 93.318006 155.81047 92.885825 156.47007 C 92.55249 156.97882 92.535779 157.17915 92.799843 157.49733 C 93.232776 158.01903 94.094026 158.00141 94.695976 157.4566 C 95.357252 156.85815 95.302226 156.44175 94.48102 155.79578 C 93.795904 155.25645 93.795776 155.24821 94.381462 155.24821 C 94.720982 155.24821 95.418643 154.80614 96.003809 154.22095 C 96.868365 153.35643 97.031069 153.01975 97.031069 152.09177 C 97.031069 149.89411 95.323791 147.86789 93.458285 147.85149 C 93.411295 147.85108 93.364689 147.85104 93.317999 147.85149 z M 112.59157 147.85149 L 112.59157 147.85375 L 112.59384 147.85375 C 112.67334 147.85275 112.85128 147.95006 113.03506 148.10265 C 113.397 148.40303 113.36625 148.57699 112.74317 149.66164 C 112.3574 150.33315 111.78829 151.16152 111.48059 151.5012 C 110.78735 152.26713 107.82661 154.46906 106.48232 155.2188 C 105.93219 155.52561 105.37261 155.77768 105.2401 155.77768 C 104.98545 155.77768 104.58689 155.2639 104.74457 155.13961 C 104.79557 155.09941 105.6696 154.52976 106.68822 153.8725 C 108.77238 152.52767 110.80149 150.61161 111.81095 149.03261 C 112.1836 148.44968 112.51877 147.92443 112.55763 147.86733 C 112.56263 147.86033 112.57026 147.85595 112.58026 147.85375 C 112.58326 147.85301 112.58827 147.85249 112.59157 147.85149 z M 90.924075 149.52135 C 91.077262 149.51935 91.329428 149.58832 91.695652 149.71594 C 92.226684 149.90106 92.532846 150.18709 92.532846 150.49657 C 92.532846 150.76478 92.665206 151.06406 92.826996 151.16406 C 93.176078 151.37981 93.635966 150.75589 93.467336 150.29519 C 93.348383 149.97022 93.790084 149.53637 94.012644 149.75893 C 94.078584 149.82483 93.939792 150.69959 93.707181 151.70258 C 93.474571 152.70557 93.241962 153.56844 93.189026 153.62134 C 93.093136 153.71724 91.584319 151.43895 90.964803 150.26351 C 90.694184 149.7501 90.650989 149.52427 90.924075 149.52135 z M 117.52197 149.63449 C 117.52297 149.63421 117.5245 149.63442 117.5265 149.63449 C 117.5452 149.63549 117.56549 149.67863 117.58759 149.76346 C 117.65449 150.02089 117.65104 150.37627 117.57854 150.5554 C 117.50604 150.73453 117.45135 150.52588 117.45635 150.08929 C 117.45935 149.81644 117.48324 149.65521 117.51744 149.63675 C 117.51844 149.63606 117.52097 149.63549 117.52197 149.63449 z M 113.77948 149.64127 L 114.09626 150.39475 C 114.26991 150.80871 114.49229 151.58216 114.59179 152.11439 C 114.77133 153.07456 114.76396 153.08384 113.73876 153.25705 C 112.44902 153.47495 111.35138 154.57337 111.14345 155.85461 C 111.0105 156.67387 111.10369 156.92584 111.79511 157.61725 C 112.27635 158.09851 112.87459 158.42277 113.28169 158.42277 C 114.15254 158.42277 114.15709 158.77912 113.29074 159.17398 C 112.92009 159.34253 112.47474 159.47639 112.29969 159.47039 C 111.70355 159.45059 110.52574 158.67295 110.52574 158.29832 C 110.52574 157.68032 109.41829 157.09909 108.23816 157.09909 C 106.04187 157.09909 105.66482 156.4698 107.38513 155.67586 C 109.0836 154.89199 112.31186 152.14891 113.08258 150.83371 L 113.77948 149.64127 z M 90.102719 150.74999 C 90.351156 150.88456 90.484919 151.16605 90.648027 151.38807 C 90.958082 151.89383 91.230313 152.42323 91.580255 152.90407 C 91.831943 153.28527 92.136378 153.6252 92.428762 153.97432 C 92.530315 154.12898 92.685826 154.30201 92.63693 154.49926 C 92.460157 154.63939 92.229519 154.45964 92.062207 154.36803 C 91.289633 153.84139 90.731827 153.0575 90.297311 152.2411 C 90.29915 152.24476 90.286877 152.21995 90.283734 152.21395 C 90.277003 152.20122 90.270043 152.18823 90.26337 152.17548 C 90.219697 152.08882 90.148565 151.94179 90.132134 151.89265 C 90.014125 151.6024 89.870521 151.29721 89.93528 150.97626 C 89.94554 150.88056 89.98557 150.74897 90.102719 150.74999 z M 101.11748 150.74999 C 101.53967 150.74999 102.3235 151.73353 102.3235 152.26373 C 102.3235 152.8336 101.85794 152.64171 101.28266 151.83382 C 100.63449 150.92353 100.60817 150.74999 101.11748 150.74999 z M 121.86633 151.1437 C 121.86833 151.14359 121.86886 151.14369 121.87086 151.1437 C 121.87486 151.14374 121.87887 151.14542 121.88217 151.14596 C 121.89557 151.14796 121.90253 151.15589 121.90253 151.16859 C 121.90253 151.23979 121.70991 151.59053 121.47489 151.94922 C 121.08654 152.54191 120.03381 152.8807 120.06071 152.40402 C 120.07201 152.2047 121.60758 151.15792 121.86633 151.1437 z M 117.51292 152.14607 C 117.56152 152.14407 117.62849 152.19151 117.72109 152.28409 C 117.96801 152.53103 117.96801 152.67296 117.72109 152.91991 C 117.47419 153.16685 117.40431 153.09702 117.40431 152.60313 C 117.40431 152.29445 117.432 152.14986 117.51292 152.14607 z M 119.58328 152.34519 C 119.81018 152.34019 119.77201 152.43294 119.54255 152.70948 C 119.12818 153.2088 118.36983 153.27599 118.5266 152.79999 C 118.5865 152.61809 118.9188 152.42953 119.26424 152.37913 C 119.40133 152.35913 119.50764 152.34669 119.58328 152.34519 z M 114.20261 154.18928 L 114.84974 154.18928 L 114.25239 154.82509 C 113.56441 155.55743 112.85387 155.80798 112.3472 155.49485 C 112.15338 155.37508 112.05233 155.22975 112.12093 155.17355 C 112.8486 154.5773 113.67015 154.18928 114.20261 154.18928 z M 98.540282 154.58977 C 97.854017 154.61265 96.947454 155.04858 96.381678 155.6917 C 94.943491 157.32651 95.359953 159.2252 97.298067 159.87767 C 98.492641 160.27988 99.218336 160.11012 100.06533 159.22602 C 101.35922 157.87559 100.89424 155.66259 99.115005 154.70291 C 98.974281 154.62701 98.799983 154.59092 98.6059 154.58977 C 98.584239 154.58965 98.56242 154.58903 98.540282 154.58977 z M 98.560646 155.51974 C 98.894841 155.52049 99.242673 155.56351 99.386527 155.6555 C 99.677959 155.8699 99.894366 156.26871 99.882056 156.771 C 99.860556 157.07216 99.142797 156.89007 98.811805 156.74159 C 98.402946 156.55824 97.624285 156.13221 97.786807 155.66455 C 97.819587 155.57025 98.181894 155.5189 98.560646 155.51974 z M 97.06501 156.32978 C 97.343538 156.33378 97.527976 156.57737 97.721189 156.74385 C 98.028789 157.0428 98.394374 157.30397 98.825381 157.37967 C 99.149944 157.45447 99.508999 157.39619 99.80965 157.56068 C 99.925676 157.62628 99.921189 157.78385 99.859429 157.88651 C 99.685065 158.19858 99.418216 158.44265 99.167047 158.69203 C 98.962053 158.87197 98.755548 159.06787 98.499554 159.17172 C 98.348693 159.19432 98.195448 159.13109 98.044754 159.11289 C 97.604492 159.02029 97.125582 158.9171 96.811589 158.56758 C 96.544686 158.25467 96.310709 157.88405 96.250442 157.47017 C 96.196712 157.12548 96.357653 156.77772 96.623786 156.56057 C 96.749498 156.45326 96.893627 156.33878 97.06501 156.32978 z M 94.019432 156.38635 C 94.162191 156.44255 94.122441 156.66412 94.103151 156.79363 C 94.048921 157.01346 93.810977 157.15559 93.589521 157.09683 C 93.390496 157.11633 93.228965 156.96662 93.45376 156.82531 C 93.62523 156.66316 93.796632 156.46899 94.019432 156.38635 z M 112.99659 156.45196 C 113.06919 156.45157 113.14634 156.45249 113.22739 156.45649 C 114.36546 156.51169 114.84803 156.97784 114.19582 157.39098 C 113.76757 157.66225 113.77449 157.66202 112.84047 157.32084 C 111.77308 156.93103 111.90715 156.45776 112.99659 156.45196 z M 109.04368 157.8933 C 109.04768 157.89325 109.05169 157.8933 109.05499 157.8933 C 109.28186 157.8933 109.4668 158.0125 109.4668 158.15803 C 109.4668 158.30355 109.35485 158.42277 109.21791 158.42277 C 109.08098 158.42277 108.896 158.30355 108.8061 158.15803 C 108.7176 158.01477 108.82394 157.89694 109.04368 157.8933 z M 104.02277 158.95223 C 103.37621 158.95223 102.9426 159.1485 102.52035 159.6333 C 101.42281 160.8934 101.40611 161.48009 102.45473 162.07474 C 103.36539 162.59115 104.66808 162.44993 105.35776 161.76023 C 105.70457 161.41343 105.94748 160.90733 105.89628 160.63567 C 105.84508 160.36402 105.79425 160.06246 105.78315 159.96366 C 105.72725 159.46752 104.83079 158.95223 104.02277 158.95223 z M 103.9911 160.0519 C 104.00526 160.05112 104.01989 160.05209 104.03409 160.0519 L 104.03409 160.05643 L 104.03635 160.05869 C 104.2494 160.06769 104.46468 160.10917 104.65406 160.21029 C 104.78398 160.27692 104.88748 160.40735 104.89843 160.55422 C 104.89889 160.55571 104.89833 160.55789 104.89843 160.55874 C 104.89949 160.57576 104.89994 160.59341 104.89843 160.61078 C 104.88693 160.77169 104.81249 160.92356 104.71516 161.04975 C 104.52746 161.25351 104.2555 161.35009 103.99562 161.42535 C 103.67841 161.50735 103.3416 161.55787 103.01588 161.50002 C 102.88411 161.47222 102.73365 161.41161 102.69231 161.26923 C 102.62561 161.07316 102.7217 160.86854 102.83486 160.71034 C 103.05039 160.42548 103.3595 160.21415 103.69921 160.10621 C 103.79424 160.07768 103.89193 160.05733 103.9911 160.0519 z " />
      <path
         id="path5024-5"
         style="fill:#26bc51;fill-opacity:1;stroke:none;stroke-width:0.264583;stroke-opacity:1;"
         d="m 93.443693,131.17041 c -0.226866,0 -0.339017,0.11906 -0.24908,0.26458 0.08994,0.14552 0.275954,0.26459 0.412894,0.26459 0.13693,0 0.248564,-0.11907 0.248564,-0.26459 0,-0.14552 -0.185508,-0.26458 -0.412378,-0.26458 z m -1.240751,0.0326 c -0.08049,0.002 -0.167988,0.0194 -0.248564,0.0517 -0.211066,0.0845 -0.148029,0.14699 0.160197,0.15968 0.278913,0.0115 0.435184,-0.0511 0.347266,-0.13901 -0.05083,-0.0508 -0.148593,-0.0754 -0.258899,-0.0723 z m 3.482991,0.53123 c -0.11229,0.002 -0.223242,0.0204 -0.308508,0.0548 -0.1819,0.0734 -0.0331,0.13384 0.330729,0.13384 0.3638,0 0.512629,-0.0604 0.330729,-0.13384 -0.09663,-0.039 -0.225687,-0.0572 -0.35295,-0.0548 z m -9.985953,0.0543 c -1.996421,0.009 -2.38649,0.68026 -1.895492,2.43396 l 0.331246,1.18132 h 1.288293 c 0.90298,0 1.288294,-0.10614 1.288294,-0.35553 0,-0.19573 0.250939,-0.58269 0.557072,-0.8599 0.470259,-0.42585 1.014092,-0.51081 3.505729,-0.54622 2.71338,-0.0386 2.955383,-0.0834 3.029272,-0.56275 0.0711,-0.4615 -0.125453,-0.54093 -1.719791,-0.69608 -0.990054,-0.0963 -2.931502,-0.30166 -4.313949,-0.45579 -0.826805,-0.0922 -1.511677,-0.1415 -2.070674,-0.13901 z m 14.48387,0.21032 c -0.11229,0.002 -0.223238,0.0204 -0.308508,0.0548 -0.1819,0.0734 -0.0331,0.13384 0.330728,0.13384 0.36381,0 0.51263,-0.0604 0.33073,-0.13384 -0.0966,-0.039 -0.22569,-0.0572 -0.35295,-0.0548 z m -4.755782,0.75913 c -0.55612,0 -0.667649,0.75141 -0.348299,2.34818 0.25591,1.27954 0.801249,1.00508 1.001489,-0.50437 0.19986,-1.50665 0.08056,-1.84381 -0.65319,-1.84381 z m 2.748153,0.26872 c -0.373541,0.0128 -0.772874,0.30661 -0.832508,0.7245 -0.0834,0.58421 -0.07539,0.58558 0.716236,0.13126 0.440229,-0.25266 0.699425,-0.56045 0.575675,-0.6842 -0.124872,-0.12487 -0.289612,-0.17739 -0.459403,-0.17156 z m -6.936011,1.58336 c -2.19147,0 -3.734139,0.33263 -3.734139,0.8046 0,0.20115 4.168065,0.73961 5.291667,0.68368 0.51482,-0.0256 0.680014,-0.19436 0.745174,-0.76067 l 0.08372,-0.72761 z m -6.800619,1.93684 c -0.36731,0.002 -0.55128,0.0187 -0.478007,0.0548 0.56071,0.2759 4.494164,0.58399 7.380945,0.57826 l 2.910417,-0.006 -2.248958,-0.2036 c -2.604211,-0.23617 -6.252575,-0.42877 -7.564397,-0.42323 z m 14.914335,0.74259 c -0.135895,3.5e-4 -0.278788,0.0162 -0.399458,0.0475 -0.25743,0.0671 -0.110998,0.12638 0.325561,0.13177 0.43656,0.005 0.647318,-0.0495 0.468189,-0.12195 -0.09516,-0.0385 -0.240277,-0.0578 -0.394292,-0.0574 z m -15.064196,0.35708 c -0.796081,0.022 -1.314668,0.31061 -1.44694,0.83768 -0.287687,1.14615 0.554724,5.52876 1.696537,8.82633 1.244632,3.59451 4.185217,7.76366 7.385079,10.47171 0.844344,0.71457 1.759101,1.50197 2.032951,1.74977 0.67634,0.61203 2.844317,1.61841 4.925797,2.28616 3.461056,1.11034 4.126346,1.27514 5.423956,1.34566 0.7276,0.0395 2.09683,0.15014 3.04271,0.24546 2.93919,0.2962 6.68767,-0.0783 7.99331,-0.7984 l 1.13482,-0.62632 0.0703,-7.51375 0.0698,-7.51376 -0.54622,0.49455 c -0.45919,0.41556 -0.67028,0.44718 -1.32654,0.19947 -0.91101,-0.34387 -0.96473,-0.25168 -0.2806,0.48266 0.81216,0.87166 1.18222,2.77308 1.20148,6.17068 0.0164,2.89626 -0.0433,3.31537 -0.64338,4.51548 l -0.66145,1.32292 -1.85209,-0.0284 c -2.08189,-0.0319 -3.75592,-0.7062 -6.64765,-2.67787 -1.89055,-1.28909 -5.46969,-5.0742 -6.068884,-6.41822 -0.22794,-0.51128 -0.630362,-1.34637 -0.894002,-1.8557 -0.26363,-0.50932 -0.675713,-1.53276 -0.916223,-2.27428 -0.24051,-0.74152 -0.672305,-1.80835 -0.959115,-2.37091 -0.81246,-1.59362 -0.685512,-2.35528 0.621668,-3.73879 1.00773,-1.06658 1.304434,-1.22502 2.511476,-1.341 1.05203,-0.10109 1.6903,0.008 2.75952,0.47232 1.86248,0.80858 5.68066,1.02159 6.67194,0.37207 1.22237,-0.80094 1.23086,-0.79896 -6.86831,-1.56735 -2.18279,-0.20708 -6.707222,-0.44941 -10.054167,-0.53847 -3.346949,-0.0891 -6.554696,-0.26528 -7.128247,-0.3917 -0.466404,-0.10281 -0.885619,-0.14799 -1.247469,-0.13798 z m 4.046264,1.78129 c 0.379258,0.003 0.795869,0.0222 1.252637,0.0558 4.776125,0.35107 4.726422,0.3362 5.490621,1.64021 0.784439,1.33856 0.722945,2.41654 -0.232544,4.07675 -1.059929,1.84169 -2.592671,2.18692 -6.372738,1.43557 -0.995642,-0.1979 -1.996713,-0.51419 -2.22467,-0.7028 -0.672563,-0.55648 -1.376609,-2.37492 -1.382861,-3.57136 -0.01137,-2.17695 0.814779,-2.95398 3.469555,-2.93418 z m 4.982645,8.42429 c 0.04669,-4.5e-4 0.09357,-4.1e-4 0.14056,0 1.865516,0.0164 3.571875,2.04136 3.571875,4.23902 0,0.92802 -0.162248,1.26502 -1.026811,2.12958 -0.585173,0.58519 -1.283637,1.02733 -1.623157,1.02733 -0.585693,0 -0.584354,0.009 0.100769,0.54829 0.82121,0.64597 0.874707,1.06139 0.213424,1.65984 -0.601953,0.54477 -1.463072,0.56356 -1.896008,0.0419 -0.264065,-0.31818 -0.247556,-0.51909 0.08578,-1.02784 0.432184,-0.6596 0.345381,-0.95757 -0.279053,-0.95757 -0.664145,0 -2.435885,-1.64758 -2.979663,-2.77089 -0.762395,-1.57491 -0.702809,-2.91761 0.164848,-3.72173 0.783697,-0.72632 2.080069,-1.15384 3.527433,-1.16789 z m 5.28805,6.7381 c 0.194083,0.001 0.368289,0.0373 0.509013,0.11317 1.779238,0.95968 2.243708,3.17174 0.949818,4.5222 -0.847018,0.8841 -1.573212,1.0554 -2.767795,0.65319 -1.938126,-0.6525 -2.353382,-2.55253 -0.915189,-4.18734 0.584032,-0.66387 1.531007,-1.10533 2.224153,-1.10122 z m 5.415221,4.36212 c 0.80802,0 1.70519,0.51465 1.76113,1.01079 0.0111,0.0988 0.0619,0.40221 0.11317,0.67386 0.0512,0.27166 -0.19063,0.77768 -0.53744,1.12448 -0.68968,0.6897 -1.99303,0.8306 -2.90369,0.31419 -1.04863,-0.59465 -1.03295,-1.18161 0.0646,-2.44171 0.42225,-0.4848 0.85565,-0.68161 1.50223,-0.68161 z M 86.933496,140.52754 c -0.344506,0.003 -0.524305,0.26528 -0.403593,0.76688 0.07836,0.32561 0.416704,1.3899 0.751892,2.36471 0.611044,1.77707 0.987426,2.16283 2.177128,2.23191 0.542729,0.0315 0.612823,-0.0782 0.588595,-0.92604 -0.02561,-0.89672 0.0616,-1.0074 1.295011,-1.63918 0.914194,-0.46828 1.350103,-0.8643 1.410767,-1.28158 0.06959,-0.47867 -0.01267,-0.57448 -0.396875,-0.46198 -0.505495,0.14802 -1.923847,0.24499 -2.91145,0.19895 -0.316259,-0.0147 -0.943321,-0.33665 -1.393197,-0.7152 -0.434275,-0.36542 -0.83283,-0.54096 -1.118278,-0.53847 z m 7.052799,0.80925 c -0.106216,0.006 -0.130224,0.19835 -0.130224,0.64958 0,0.55796 0.128835,0.8263 0.396875,0.8263 0.21828,0 0.396875,-0.22338 0.396875,-0.49661 0,-0.27322 -0.178595,-0.64515 -0.396875,-0.8263 -0.121602,-0.10092 -0.207063,-0.15636 -0.266651,-0.15297 z m -7.674983,2.97398 c -1.14e-4,0.002 -4.38e-4,0.004 -5.17e-4,0.006 7.4e-5,-0.002 4.11e-4,-0.004 5.17e-4,-0.006 z m 0.103353,0.36536 c 0.0031,0.006 0.0062,0.0124 0.0093,0.0186 -0.0031,-0.006 -0.0062,-0.0123 -0.0093,-0.0186 z m 0.07235,0.13074 0.0057,0.009 z m 12.776481,1.83658 c -0.04373,7.4e-4 -0.07242,0.006 -0.0832,0.017 -0.0575,0.0575 0.120998,0.7333 0.396358,1.50172 0.449206,1.25358 0.587636,1.40577 1.348756,1.47949 0.56236,0.0545 1.08417,0.36225 1.54771,0.91313 0.58273,0.69254 0.675,1.00886 0.55552,1.89962 -0.10354,0.77195 -0.0235,1.20106 0.28784,1.54513 0.41144,0.45463 0.46047,0.43903 1.07383,-0.34468 0.47428,-0.60602 0.8251,-0.80213 1.33842,-0.74828 0.38259,0.0401 0.85101,-0.0235 1.04128,-0.14108 0.33341,-0.20606 0.13355,-0.34996 -2.22467,-1.603 -0.73131,-0.38859 -1.42885,-1.09756 -1.42885,-1.45211 0,-0.15592 -0.0953,-0.28318 -0.21187,-0.28318 -0.11652,0 -0.45804,-0.50735 -0.75913,-1.12707 -0.46262,-0.95222 -0.72632,-1.17416 -1.70377,-1.43505 -0.516866,-0.13796 -0.988732,-0.22493 -1.178225,-0.22169 z m -8.338509,2.87837 c -0.273082,0.003 -0.231349,0.22915 0.03927,0.74259 0.619519,1.17544 2.129299,3.45331 2.225187,3.35742 0.05294,-0.0529 0.286221,-0.91679 0.518831,-1.91978 0.23261,-1.00299 0.369281,-1.87761 0.303341,-1.94355 -0.22256,-0.22256 -0.662589,0.21195 -0.543636,0.53692 0.16863,0.4607 -0.291185,1.08546 -0.640271,0.86971 -0.16179,-0.1 -0.294556,-0.401 -0.294556,-0.66921 0,-0.30951 -0.305602,-0.59416 -0.836641,-0.77928 -0.366224,-0.12766 -0.618339,-0.19645 -0.771529,-0.19482 z m 4.378544,0.25167 c -0.02297,0.002 -0.04482,0.0131 -0.06563,0.0336 -0.25148,0.24805 -0.797949,4.08444 -0.608749,4.27364 0.30732,0.30732 1.341284,-1.37855 1.342554,-2.18901 0.0018,-0.93586 -0.397184,-2.1414 -0.668176,-2.11822 z m 3.257688,5.74591 c -0.378755,-8.4e-4 -0.741335,0.0519 -0.774113,0.14625 -0.162522,0.46769 0.615885,0.89358 1.024744,1.07693 0.330998,0.14844 1.049239,0.33062 1.070735,0.0295 0.01231,-0.50229 -0.205178,-0.90285 -0.49661,-1.11725 -0.143857,-0.092 -0.490561,-0.13464 -0.824756,-0.13539 z m 10.482601,2.37465 c -0.21977,0.004 -0.32727,0.12133 -0.23874,0.26459 0.0899,0.14552 0.27596,0.26458 0.41289,0.26458 0.13694,0 0.24856,-0.11906 0.24856,-0.26458 0,-0.14553 -0.1855,-0.26459 -0.41237,-0.26459 -0.004,0 -0.007,-5e-5 -0.0103,0 z m -17.678553,-5.30909 c 0.0164,0.0251 0.03305,0.05 0.04961,0.0749 -0.01665,-0.0251 -0.03313,-0.0497 -0.04961,-0.0749 z m 0.297139,0.4346 c 0.03203,0.045 0.06397,0.0897 0.0956,0.13281 -0.0317,-0.0432 -0.06349,-0.0877 -0.0956,-0.13281 z m 0.627869,1.4733 c 0.02942,0.0128 0.05784,0.0245 0.08423,0.0331 -0.0048,-0.002 -0.01006,-0.003 -0.01499,-0.005 -0.02216,-0.008 -0.04499,-0.0173 -0.06925,-0.0279 z" />
    </g>
  </g>
</svg>
